<svg xmlns="http://www.w3.org/2000/svg" viewBox="0 0 1200 480">
  <defs>
    <linearGradient id="skyGrad" x1="0%" y1="0%" x2="0%" y2="100%">
      <stop offset="0%" style="stop-color:#87CEEB;stop-opacity:1" />
      <stop offset="100%" style="stop-color:#F0F8FF;stop-opacity:1" />
    </linearGradient>
    <linearGradient id="palaceGrad" x1="0%" y1="0%" x2="0%" y2="100%">
      <stop offset="0%" style="stop-color:#F0E68C;stop-opacity:1" />
      <stop offset="100%" style="stop-color:#BDB76B;stop-opacity:1" />
    </linearGradient>
  </defs>
  
  <!-- Sky background -->
  <rect width="1200" height="480" fill="url(#skyGrad)"/>
  
  <!-- Branicki Palace (Versailles of the North) -->
  <rect x="300" y="180" width="600" height="120" fill="url(#palaceGrad)"/>
  <polygon points="300,180 600,140 900,180" fill="#DAA520"/>
  
  <!-- Central palace building -->
  <rect x="500" y="120" width="200" height="180" fill="#F5F5DC"/>
  <polygon points="500,120 600,80 700,120" fill="#DAA520"/>
  
  <!-- Palace windows in baroque style -->
  <rect x="520" y="150" width="15" height="25" fill="#4A4A4A"/>
  <rect x="545" y="150" width="15" height="25" fill="#4A4A4A"/>
  <rect x="570" y="150" width="15" height="25" fill="#4A4A4A"/>
  <rect x="595" y="150" width="15" height="25" fill="#4A4A4A"/>
  <rect x="620" y="150" width="15" height="25" fill="#4A4A4A"/>
  <rect x="645" y="150" width="15" height="25" fill="#4A4A4A"/>
  <rect x="670" y="150" width="15" height="25" fill="#4A4A4A"/>
  
  <rect x="520" y="200" width="15" height="25" fill="#4A4A4A"/>
  <rect x="545" y="200" width="15" height="25" fill="#4A4A4A"/>
  <rect x="570" y="200" width="15" height="25" fill="#4A4A4A"/>
  <rect x="595" y="200" width="15" height="25" fill="#4A4A4A"/>
  <rect x="620" y="200" width="15" height="25" fill="#4A4A4A"/>
  <rect x="645" y="200" width="15" height="25" fill="#4A4A4A"/>
  <rect x="670" y="200" width="15" height="25" fill="#4A4A4A"/>
  
  <!-- Grand entrance -->
  <rect x="580" y="250" width="40" height="50" fill="#8B4513"/>
  <polygon points="580,250 600,230 620,250" fill="#DAA520"/>
  
  <!-- Palace side wings -->
  <rect x="320" y="200" width="150" height="80" fill="#F0E68C"/>
  <rect x="335" y="230" width="12" height="20" fill="#4A4A4A"/>
  <rect x="355" y="230" width="12" height="20" fill="#4A4A4A"/>
  <rect x="375" y="230" width="12" height="20" fill="#4A4A4A"/>
  <rect x="395" y="230" width="12" height="20" fill="#4A4A4A"/>
  <rect x="415" y="230" width="12" height="20" fill="#4A4A4A"/>
  <rect x="435" y="230" width="12" height="20" fill="#4A4A4A"/>
  <rect x="455" y="230" width="12" height="20" fill="#4A4A4A"/>
  
  <rect x="730" y="200" width="150" height="80" fill="#F0E68C"/>
  <rect x="745" y="230" width="12" height="20" fill="#4A4A4A"/>
  <rect x="765" y="230" width="12" height="20" fill="#4A4A4A"/>
  <rect x="785" y="230" width="12" height="20" fill="#4A4A4A"/>
  <rect x="805" y="230" width="12" height="20" fill="#4A4A4A"/>
  <rect x="825" y="230" width="12" height="20" fill="#4A4A4A"/>
  <rect x="845" y="230" width="12" height="20" fill="#4A4A4A"/>
  <rect x="865" y="230" width="12" height="20" fill="#4A4A4A"/>
  
  <!-- Baroque garden -->
  <rect x="200" y="320" width="800" height="160" fill="#228B22"/>
  
  <!-- Formal garden paths -->
  <rect x="590" y="320" width="20" height="160" fill="#DEB887"/>
  <rect x="200" y="390" width="800" height="20" fill="#DEB887"/>
  
  <!-- Garden parterres -->
  <rect x="250" y="340" width="150" height="30" fill="#9ACD32"/>
  <rect x="250" y="410" width="150" height="30" fill="#9ACD32"/>
  <rect x="650" y="340" width="150" height="30" fill="#9ACD32"/>
  <rect x="650" y="410" width="150" height="30" fill="#9ACD32"/>
  
  <!-- Ornamental flower beds -->
  <circle cx="280" cy="355" r="8" fill="#FF69B4"/>
  <circle cx="310" cy="355" r="8" fill="#9370DB"/>
  <circle cx="340" cy="355" r="8" fill="#FFD700"/>
  <circle cx="370" cy="355" r="8" fill="#FF1493"/>
  
  <circle cx="280" cy="425" r="8" fill="#4169E1"/>
  <circle cx="310" cy="425" r="8" fill="#32CD32"/>
  <circle cx="340" cy="425" r="8" fill="#FF6347"/>
  <circle cx="370" cy="425" r="8" fill="#9370DB"/>
  
  <circle cx="680" cy="355" r="8" fill="#FFD700"/>
  <circle cx="710" cy="355" r="8" fill="#FF69B4"/>
  <circle cx="740" cy="355" r="8" fill="#4169E1"/>
  <circle cx="770" cy="355" r="8" fill="#32CD32"/>
  
  <circle cx="680" cy="425" r="8" fill="#FF1493"/>
  <circle cx="710" cy="425" r="8" fill="#9370DB"/>
  <circle cx="740" cy="425" r="8" fill="#FF6347"/>
  <circle cx="770" cy="425" r="8" fill="#FFD700"/>
  
  <!-- Fountain -->
  <circle cx="600" cy="400" r="15" fill="#4682B4"/>
  <circle cx="600" cy="400" r="10" fill="#87CEEB"/>
  <!-- Water jets -->
  <line x1="600" y1="385" x2="600" y2="375" stroke="#87CEEB" stroke-width="3"/>
  <line x1="590" y1="390" x2="585" y2="380" stroke="#87CEEB" stroke-width="2"/>
  <line x1="610" y1="390" x2="615" y2="380" stroke="#87CEEB" stroke-width="2"/>
  <line x1="595" y1="405" x2="590" y2="415" stroke="#87CEEB" stroke-width="2"/>
  <line x1="605" y1="405" x2="610" y2="415" stroke="#87CEEB" stroke-width="2"/>
  
  <!-- Medical University buildings -->
  <rect x="900" y="200" width="150" height="80" fill="#F5F5DC"/>
  <polygon points="900,200 975,180 1050,200" fill="#8B4513"/>
  <rect x="920" y="220" width="15" height="20" fill="#4A4A4A"/>
  <rect x="945" y="220" width="15" height="20" fill="#4A4A4A"/>
  <rect x="970" y="220" width="15" height="20" fill="#4A4A4A"/>
  <rect x="995" y="220" width="15" height="20" fill="#4A4A4A"/>
  <rect x="1020" y="220" width="15" height="20" fill="#4A4A4A"/>
  <rect x="960" y="250" width="30" height="30" fill="#654321"/>
  
  <!-- Medical cross symbol -->
  <line x1="975" y1="190" x2="975" y2="200" stroke="#DC143C" stroke-width="3"/>
  <line x1="970" y1="195" x2="980" y2="195" stroke="#DC143C" stroke-width="3"/>
  
  <!-- Historic town center -->
  <rect x="50" y="250" width="200" height="100" fill="#DEB887"/>
  <rect x="70" y="280" width="15" height="20" fill="#4A4A4A"/>
  <rect x="95" y="280" width="15" height="20" fill="#4A4A4A"/>
  <rect x="120" y="280" width="15" height="20" fill="#4A4A4A"/>
  <rect x="145" y="280" width="15" height="20" fill="#4A4A4A"/>
  <rect x="170" y="280" width="15" height="20" fill="#4A4A4A"/>
  <rect x="195" y="280" width="15" height="20" fill="#4A4A4A"/>
  <rect x="220" y="280" width="15" height="20" fill="#4A4A4A"/>
  
  <!-- Market square -->
  <rect x="80" y="320" width="160" height="60" fill="#DEB887"/>
  <rect x="140" y="340" width="30" height="10" fill="#8B4513"/>
  <rect x="140" y="335" width="30" height="5" fill="#FFFFFF"/>
  
  <!-- Town Hall -->
  <rect x="120" y="230" width="80" height="70" fill="#F0E68C"/>
  <polygon points="120,230 160,210 200,230" fill="#BDB76B"/>
  <rect x="140" y="250" width="12" height="18" fill="#4A4A4A"/>
  <rect x="168" y="250" width="12" height="18" fill="#4A4A4A"/>
  <rect x="150" y="275" width="20" height="25" fill="#654321"/>
  
  <!-- Orthodox church (multicultural aspect) -->
  <rect x="1100" y="180" width="60" height="80" fill="#F0F8FF"/>
  <polygon points="1100,180 1130,160 1160,180" fill="#4169E1"/>
  <!-- Orthodox dome -->
  <ellipse cx="1130" cy="150" rx="15" ry="8" fill="#FFD700"/>
  <line x1="1130" y1="142" x2="1130" y2="152" stroke="#8B4513" stroke-width="2"/>
  <line x1="1127" y1="145" x2="1133" y2="145" stroke="#8B4513" stroke-width="2"/>
  <line x1="1127" y1="149" x2="1133" y2="149" stroke="#8B4513" stroke-width="2"/>
  <rect x="1115" y="210" width="12" height="20" fill="#4169E1"/>
  <rect x="1143" y="210" width="12" height="20" fill="#4169E1"/>
  <rect x="1125" y="240" width="20" height="20" fill="#8B4513"/>
  
  <!-- Catholic church -->
  <rect x="30" y="160" width="50" height="90" fill="#F5F5DC"/>
  <polygon points="30,160 55,140 80,160" fill="#8B4513"/>
  <rect x="50" y="140" width="10" height="70" fill="#DEB887"/>
  <polygon points="50,140 55,125 60,140" fill="#8B4513"/>
  <line x1="55" y1="135" x2="55" y2="145" stroke="#8B4513" stroke-width="2"/>
  <line x1="52" y1="138" x2="58" y2="138" stroke="#8B4513" stroke-width="2"/>
  <rect x="42" y="190" width="8" height="12" fill="#4A4A4A"/>
  <rect x="60" y="190" width="8" height="12" fill="#4A4A4A"/>
  <rect x="47" y="220" width="16" height="30" fill="#654321"/>
  
  <!-- Technology Park -->
  <rect x="950" y="300" width="200" height="80" fill="#E0E0E0"/>
  <polygon points="950,300 1050,280 1150,300" fill="#C0C0C0"/>
  <rect x="970" y="320" width="20" height="25" fill="#4A90E2"/>
  <rect x="1000" y="320" width="20" height="25" fill="#4A90E2"/>
  <rect x="1030" y="320" width="20" height="25" fill="#4A90E2"/>
  <rect x="1060" y="320" width="20" height="25" fill="#4A90E2"/>
  <rect x="1090" y="320" width="20" height="25" fill="#4A90E2"/>
  <rect x="1020" y="350" width="40" height="30" fill="#654321"/>
  
  <!-- Technology symbols -->
  <circle cx="1010" cy="290" r="4" fill="#00CED1"/>
  <circle cx="1040" cy="290" r="4" fill="#00CED1"/>
  <circle cx="1070" cy="290" r="4" fill="#00CED1"/>
  
  <!-- University students -->
  <circle cx="980" cy="390" r="3" fill="#FFE4C4"/>
  <rect x="977" y="393" width="6" height="10" fill="#4169E1"/>
  <rect x="979" y="403" width="2" height="6" fill="#8B4513"/>
  
  <circle cx="1020" cy="395" r="3" fill="#FFE4C4"/>
  <rect x="1017" y="398" width="6" height="10" fill="#DC143C"/>
  <rect x="1019" y="408" width="2" height="6" fill="#8B4513"/>
  
  <circle cx="1060" cy="390" r="3" fill="#FFE4C4"/>
  <rect x="1057" y="393" width="6" height="10" fill="#228B22"/>
  <rect x="1059" y="403" width="2" height="6" fill="#8B4513"/>
  
  <!-- Palace visitors -->
  <circle cx="450" cy="390" r="3" fill="#FFE4C4"/>
  <rect x="447" y="393" width="6" height="10" fill="#8B008B"/>
  <rect x="449" y="403" width="2" height="6" fill="#8B4513"/>
  
  <circle cx="750" cy="385" r="3" fill="#FFE4C4"/>
  <rect x="747" y="388" width="6" height="10" fill="#FFD700"/>
  <rect x="749" y="398" width="2" height="6" fill="#8B4513"/>
  
  <!-- Natural elements -->
  <ellipse cx="100" cy="370" rx="25" ry="30" fill="#228B22"/>
  <rect x="98" y="385" width="4" height="25" fill="#8B4513"/>
  
  <ellipse cx="1150" cy="400" rx="30" ry="35" fill="#228B22"/>
  <rect x="1148" y="420" width="4" height="30" fill="#8B4513"/>
  
  <!-- Street and pathways -->
  <rect x="0" y="450" width="1200" height="30" fill="#696969"/>
  <line x1="0" y1="465" x2="1200" y2="465" stroke="#FFFFFF" stroke-width="2" stroke-dasharray="10,5"/>
  
  <!-- Title -->
  <text x="600" y="40" text-anchor="middle" font-family="serif" font-size="36" font-weight="bold" fill="#8B4513">BIAŁYSTOK</text>
  <text x="600" y="70" text-anchor="middle" font-family="serif" font-size="18" fill="#A0522D">Versailles van het Noorden</text>
</svg>