<svg xmlns="http://www.w3.org/2000/svg" viewBox="0 0 1200 480">
  <defs>
    <linearGradient id="seaGrad" x1="0%" y1="0%" x2="0%" y2="100%">
      <stop offset="0%" style="stop-color:#4682B4;stop-opacity:1" />
      <stop offset="100%" style="stop-color:#1E90FF;stop-opacity:1" />
    </linearGradient>
    <linearGradient id="beachGrad" x1="0%" y1="0%" x2="0%" y2="100%">
      <stop offset="0%" style="stop-color:#F5DEB3;stop-opacity:1" />
      <stop offset="100%" style="stop-color:#DEB887;stop-opacity:1" />
    </linearGradient>
  </defs>
  
  <!-- Baltic Sea (both sides of peninsula) -->
  <rect width="1200" height="200" fill="url(#seaGrad)"/>
  <rect x="0" y="300" width="1200" height="180" fill="url(#seaGrad)"/>
  
  <!-- Narrow peninsula -->
  <rect x="0" y="200" width="1200" height="100" fill="url(#beachGrad)"/>
  
  <!-- Waves on both sides -->
  <path d="M0 180 Q50 170 100 180 Q150 190 200 180 Q250 170 300 180 Q350 190 400 180 Q450 170 500 180 Q550 190 600 180 Q650 170 700 180 Q750 190 800 180 Q850 170 900 180 Q950 190 1000 180 Q1050 170 1100 180 Q1150 190 1200 180 L1200 200 L0 200 Z" fill="#FFFFFF" opacity="0.5"/>
  
  <path d="M0 300 Q50 290 100 300 Q150 310 200 300 Q250 290 300 300 Q350 310 400 300 Q450 290 500 300 Q550 310 600 300 Q650 290 700 300 Q750 310 800 300 Q850 290 900 300 Q950 310 1000 300 Q1050 290 1100 300 Q1150 310 1200 300 L1200 320 L0 320 Z" fill="#FFFFFF" opacity="0.5"/>
  
  <!-- Lighthouse at tip of peninsula -->
  <rect x="1100" y="150" width="20" height="100" fill="#FFFFFF"/>
  <rect x="1097" y="145" width="26" height="8" fill="#DC143C"/>
  <rect x="1094" y="138" width="32" height="8" fill="#FFFFFF"/>
  <rect x="1097" y="131" width="26" height="8" fill="#DC143C"/>
  
  <!-- Lighthouse light -->
  <circle cx="1110" cy="141" r="6" fill="#FFD700"/>
  <path d="M 1104 141 L 1085 133 L 1085 149 Z" fill="#FFFF99" opacity="0.6"/>
  <path d="M 1116 141 L 1135 133 L 1135 149 Z" fill="#FFFF99" opacity="0.6"/>
  
  <!-- Seal colony area -->
  <ellipse cx="200" cy="230" rx="80" ry="30" fill="#F5DEB3"/>
  
  <!-- Seals -->
  <ellipse cx="180" cy="225" rx="8" ry="4" fill="#708090"/>
  <circle cx="175" cy="223" r="2" fill="#708090"/>
  
  <ellipse cx="210" cy="235" rx="10" ry="5" fill="#696969"/>
  <circle cx="204" cy="232" r="2.5" fill="#696969"/>
  
  <ellipse cx="190" cy="240" rx="7" ry="3.5" fill="#708090"/>
  <circle cx="186" cy="238" r="1.8" fill="#708090"/>
  
  <ellipse cx="220" cy="228" rx="9" ry="4.5" fill="#696969"/>
  <circle cx="214" cy="225" r="2.2" fill="#696969"/>
  
  <ellipse cx="235" cy="238" rx="8" ry="4" fill="#708090"/>
  <circle cx="230" cy="236" r="2" fill="#708090"/>
  
  <!-- Fisherman's village -->
  <rect x="400" y="220" width="60" height="40" fill="#FFE4B5"/>
  <polygon points="400,220 430,205 460,220" fill="#8B4513"/>
  <rect x="415" y="240" width="8" height="12" fill="#4A4A4A"/>
  <rect x="435" y="240" width="8" height="12" fill="#4A4A4A"/>
  <rect x="420" y="250" width="15" height="10" fill="#654321"/>
  
  <rect x="480" y="215" width="70" height="45" fill="#F0E68C"/>
  <polygon points="480,215 515,200 550,215" fill="#8B4513"/>
  <rect x="495" y="235" width="10" height="15" fill="#4A4A4A"/>
  <rect x="515" y="235" width="10" height="15" fill="#4A4A4A"/>
  <rect x="535" y="235" width="10" height="15" fill="#4A4A4A"/>
  <rect x="505" y="250" width="20" height="10" fill="#654321"/>
  
  <rect x="570" y="220" width="60" height="40" fill="#DDA0DD"/>
  <polygon points="570,220 600,205 630,220" fill="#8B008B"/>
  <rect x="585" y="240" width="8" height="12" fill="#4A4A4A"/>
  <rect x="605" y="240" width="8" height="12" fill="#4A4A4A"/>
  <rect x="590" y="250" width="15" height="10" fill="#654321"/>
  
  <!-- Fishing boats -->
  <g id="fishingBoat1" transform="translate(350,170)">
    <ellipse cx="0" cy="0" rx="20" ry="6" fill="#8B4513"/>
    <rect x="-15" y="-4" width="30" height="3" fill="#654321"/>
    <rect x="-2" y="-10" width="4" height="10" fill="#654321"/>
    <polygon points="-2,-10 2,-14 2,-10" fill="#FFFFFF"/>
    <!-- Fishing nets -->
    <circle cx="-8" cy="-2" r="2" fill="#228B22" opacity="0.7"/>
    <circle cx="8" cy="-2" r="2" fill="#228B22" opacity="0.7"/>
  </g>
  
  <g id="fishingBoat2" transform="translate(650,160)">
    <ellipse cx="0" cy="0" rx="18" ry="5" fill="#8B4513"/>
    <rect x="-13" y="-3" width="26" height="2" fill="#654321"/>
    <rect x="-2" y="-8" width="4" height="8" fill="#654321"/>
    <polygon points="-2,-8 2,-12 2,-8" fill="#FFFFFF"/>
    <circle cx="-6" cy="-1" r="1.5" fill="#228B22" opacity="0.7"/>
    <circle cx="6" cy="-1" r="1.5" fill="#228B22" opacity="0.7"/>
  </g>
  
  <!-- Beach resort -->
  <rect x="700" y="210" width="100" height="50" fill="#F0F8FF"/>
  <polygon points="700,210 750,195 800,210" fill="#4169E1"/>
  <rect x="720" y="230" width="12" height="15" fill="#4A90E2"/>
  <rect x="740" y="230" width="12" height="15" fill="#4A90E2"/>
  <rect x="760" y="230" width="12" height="15" fill="#4A90E2"/>
  <rect x="780" y="230" width="12" height="15" fill="#4A90E2"/>
  <rect x="745" y="250" width="15" height="10" fill="#654321"/>
  
  <!-- Marine research station -->
  <rect x="850" y="215" width="80" height="45" fill="#E0E0E0"/>
  <polygon points="850,215 890,200 930,215" fill="#C0C0C0"/>
  <rect x="865" y="235" width="10" height="12" fill="#4A90E2"/>
  <rect x="885" y="235" width="10" height="12" fill="#4A90E2"/>
  <rect x="905" y="235" width="10" height="12" fill="#4A90E2"/>
  <rect x="875" y="250" width="20" height="10" fill="#654321"/>
  
  <!-- Research equipment -->
  <circle cx="890" cy="205" r="3" fill="#00CED1"/>
  <text x="890" y="208" text-anchor="middle" font-family="serif" font-size="4" fill="#FFFFFF">SEA</text>
  
  <!-- Nature reserve signs -->
  <rect x="150" y="200" width="3" height="20" fill="#8B4513"/>
  <rect x="153" y="200" width="25" height="15" fill="#228B22"/>
  <text x="165" y="210" text-anchor="middle" font-family="serif" font-size="6" fill="#FFFFFF">FOKARIUM</text>
  
  <!-- Beach umbrellas -->
  <g id="umbrella1" transform="translate(750,280)">
    <rect x="0" y="0" width="2" height="20" fill="#8B4513"/>
    <path d="M -8 0 Q 0 -6 8 0 Q 6 -3 0 -3 Q -6 -3 -8 0" fill="#FF6347"/>
  </g>
  
  <g id="umbrella2" transform="translate(820,285)">
    <rect x="0" y="0" width="2" height="15" fill="#8B4513"/>
    <path d="M -8 0 Q 0 -6 8 0 Q 6 -3 0 -3 Q -6 -3 -8 0" fill="#4169E1"/>
  </g>
  
  <!-- Tourists observing seals -->
  <circle cx="160" cy="260" r="2" fill="#FFE4C4"/>
  <rect x="158" y="262" width="4" height="8" fill="#32CD32"/>
  <rect x="159" y="270" width="2" height="5" fill="#8B4513"/>
  <!-- Binoculars -->
  <circle cx="158" cy="258" r="1" fill="#2F2F2F"/>
  <circle cx="162" cy="258" r="1" fill="#2F2F2F"/>
  
  <circle cx="180" cy="265" r="2" fill="#FFE4C4"/>
  <rect x="178" y="267" width="4" height="8" fill="#4169E1"/>
  <rect x="179" y="275" width="2" height="5" fill="#8B4513"/>
  <circle cx="178" cy="263" r="1" fill="#2F2F2F"/>
  <circle cx="182" cy="263" r="1" fill="#2F2F2F"/>
  
  <circle cx="250" cy="270" r="2" fill="#FFE4C4"/>
  <rect x="248" y="272" width="4" height="8" fill="#FFD700"/>
  <rect x="249" y="280" width="2" height="5" fill="#8B4513"/>
  
  <!-- Beach visitors -->
  <circle cx="720" cy="280" r="2" fill="#FFE4C4"/>
  <rect x="718" y="282" width="4" height="8" fill="#FF69B4"/>
  <rect x="719" y="290" width="2" height="5" fill="#8B4513"/>
  
  <circle cx="800" cy="285" r="2" fill="#FFE4C4"/>
  <rect x="798" y="287" width="4" height="8" fill="#9370DB"/>
  <rect x="799" y="295" width="2" height="5" fill="#8B4513"/>
  
  <!-- Windsurfers on both sides -->
  <g id="windsurfer1" transform="translate(300,150)">
    <ellipse cx="0" cy="0" rx="8" ry="3" fill="#FFD700"/>
    <circle cx="-2" cy="-1" r="1.5" fill="#FFE4C4"/>
    <polygon points="3,0 8,-8 10,-6 5,2" fill="#FFFFFF"/>
    <line x1="3" y1="0" x2="8" y2="-8" stroke="#8B4513" stroke-width="1"/>
  </g>
  
  <g id="windsurfer2" transform="translate(500,320)">
    <ellipse cx="0" cy="0" rx="8" ry="3" fill="#DC143C"/>
    <circle cx="-2" cy="-1" r="1.5" fill="#FFE4C4"/>
    <polygon points="3,0 8,-8 10,-6 5,2" fill="#FFFFFF"/>
    <line x1="3" y1="0" x2="8" y2="-8" stroke="#8B4513" stroke-width="1"/>
  </g>
  
  <!-- Kite surfers -->
  <g id="kitesurfer" transform="translate(900,340)">
    <ellipse cx="0" cy="0" rx="6" ry="2" fill="#4169E1"/>
    <circle cx="-1" cy="-1" r="1" fill="#FFE4C4"/>
    <!-- Kite in sky -->
    <polygon points="-2,-25 2,-30 6,-25 2,-20" fill="#FF6347"/>
    <line x1="0" y1="-2" x2="2" y2="-20" stroke="#654321" stroke-width="1"/>
  </g>
  
  <!-- Dune vegetation -->
  <ellipse cx="100" cy="250" rx="15" ry="10" fill="#9ACD32"/>
  <ellipse cx="120" cy="245" rx="12" ry="8" fill="#9ACD32"/>
  <ellipse cx="80" cy="255" rx="10" ry="6" fill="#9ACD32"/>
  
  <ellipse cx="950" cy="240" rx="18" ry="12" fill="#9ACD32"/>
  <ellipse cx="970" cy="235" rx="15" ry="10" fill="#9ACD32"/>
  <ellipse cx="990" cy="250" rx="12" ry="8" fill="#9ACD32"/>
  
  <!-- Seagulls -->
  <path d="M250 100 Q255 95 260 100 Q265 95 270 100" stroke="#FFFFFF" stroke-width="2" fill="none"/>
  <path d="M600 80 Q605 75 610 80 Q615 75 620 80" stroke="#FFFFFF" stroke-width="2" fill="none"/>
  <path d="M800 120 Q805 115 810 120 Q815 115 820 120" stroke="#FFFFFF" stroke-width="2" fill="none"/>
  <path d="M1000 90 Q1005 85 1010 90 Q1015 85 1020 90" stroke="#FFFFFF" stroke-width="2" fill="none"/>
  <path d="M400 380 Q405 375 410 380 Q415 375 420 380" stroke="#FFFFFF" stroke-width="2" fill="none"/>
  
  <!-- Marine life indicators -->
  <circle cx="300" cy="190" r="2" fill="#FF69B4" opacity="0.7"/>
  <circle cx="450" cy="170" r="2" fill="#FF69B4" opacity="0.7"/>
  <circle cx="600" cy="350" r="2" fill="#FF69B4" opacity="0.7"/>
  <circle cx="800" cy="330" r="2" fill="#FF69B4" opacity="0.7"/>
  
  <!-- Title -->
  <text x="600" y="40" text-anchor="middle" font-family="serif" font-size="36" font-weight="bold" fill="#4169E1">HEL SCHIEREILAND</text>
  <text x="600" y="70" text-anchor="middle" font-family="serif" font-size="18" fill="#1E90FF">Zeehondenreservaat en Vuurtoren</text>
</svg>