<svg xmlns="http://www.w3.org/2000/svg" viewBox="0 0 1200 480">
  <defs>
    <linearGradient id="skyGrad" x1="0%" y1="0%" x2="0%" y2="100%">
      <stop offset="0%" style="stop-color:#87CEEB;stop-opacity:1" />
      <stop offset="100%" style="stop-color:#F0F8FF;stop-opacity:1" />
    </linearGradient>
    <linearGradient id="mountainGrad" x1="0%" y1="0%" x2="0%" y2="100%">
      <stop offset="0%" style="stop-color:#8FBC8F;stop-opacity:1" />
      <stop offset="100%" style="stop-color:#556B2F;stop-opacity:1" />
    </linearGradient>
  </defs>
  
  <!-- Sky background -->
  <rect width="1200" height="480" fill="url(#skyGrad)"/>
  
  <!-- Sudeten Mountains -->
  <polygon points="0,150 200,120 400,100 600,110 800,95 1000,105 1200,130 1200,480 0,480" fill="url(#mountainGrad)"/>
  
  <!-- Sniezka peak in distance -->
  <polygon points="800,95 850,70 900,95" fill="#B0C4DE"/>
  <polygon points="840,70 850,50 860,70" fill="#F0F8FF"/>
  
  <!-- Mountain ridges -->
  <polygon points="100,140 300,110 500,130 700,120 900,125 1100,140 1200,130 1200,200 0,200" fill="#228B22" opacity="0.7"/>
  
  <!-- Historic Market Square -->
  <rect x="400" y="300" width="400" height="130" fill="#DEB887"/>
  
  <!-- Baroque buildings around square -->
  <rect x="420" y="280" width="60" height="80" fill="#FFE4B5"/>
  <polygon points="420,280 450,260 480,280" fill="#DEB887"/>
  <rect x="435" y="305" width="10" height="15" fill="#4A4A4A"/>
  <rect x="455" y="305" width="10" height="15" fill="#4A4A4A"/>
  <rect x="440" y="335" width="20" height="25" fill="#654321"/>
  
  <rect x="500" y="275" width="70" height="85" fill="#F0E68C"/>
  <polygon points="500,275 535,255 570,275" fill="#BDB76B"/>
  <rect x="520" y="300" width="12" height="18" fill="#4A4A4A"/>
  <rect x="542" y="300" width="12" height="18" fill="#4A4A4A"/>
  <rect x="525" y="335" width="20" height="25" fill="#654321"/>
  
  <rect x="590" y="280" width="60" height="80" fill="#DDA0DD"/>
  <polygon points="590,280 620,260 650,280" fill="#8B008B"/>
  <rect x="605" y="305" width="10" height="15" fill="#4A4A4A"/>
  <rect x="625" y="305" width="10" height="15" fill="#4A4A4A"/>
  <rect x="610" y="335" width="20" height="25" fill="#654321"/>
  
  <rect x="670" y="275" width="70" height="85" fill="#98FB98"/>
  <polygon points="670,275 705,255 740,275" fill="#228B22"/>
  <rect x="690" y="300" width="12" height="18" fill="#4A4A4A"/>
  <rect x="712" y="300" width="12" height="18" fill="#4A4A4A"/>
  <rect x="695" y="335" width="20" height="25" fill="#654321"/>
  
  <rect x="760" y="280" width="60" height="80" fill="#FFB6C1"/>
  <polygon points="760,280 790,260 820,280" fill="#FF69B4"/>
  <rect x="775" y="305" width="10" height="15" fill="#4A4A4A"/>
  <rect x="795" y="305" width="10" height="15" fill="#4A4A4A"/>
  <rect x="780" y="335" width="20" height="25" fill="#654321"/>
  
  <!-- Town Hall -->
  <rect x="580" y="250" width="80" height="70" fill="#F5F5DC"/>
  <polygon points="580,250 620,230 660,250" fill="#DAA520"/>
  <rect x="600" y="270" width="12" height="18" fill="#4A4A4A"/>
  <rect x="628" y="270" width="12" height="18" fill="#4A4A4A"/>
  <rect x="610" y="300" width="20" height="20" fill="#654321"/>
  
  <!-- Clock tower -->
  <rect x="615" y="200" width="20" height="80" fill="#DEB887"/>
  <polygon points="615,200 625,180 635,200" fill="#B8860B"/>
  <circle cx="625" cy="220" r="8" fill="#F5F5DC" stroke="#8B4513" stroke-width="1"/>
  <line x1="625" y1="220" x2="625" y2="214" stroke="#8B4513" stroke-width="1"/>
  <line x1="625" y1="220" x2="629" y2="220" stroke="#8B4513" stroke-width="1"/>
  
  <!-- Castle ruins on hill -->
  <rect x="200" y="200" width="120" height="80" fill="#8B7355"/>
  <polygon points="200,200 260,180 320,200" fill="#A0522D"/>
  
  <!-- Castle towers -->
  <rect x="180" y="170" width="30" height="110" fill="#696969"/>
  <polygon points="180,170 195,150 210,170" fill="#2F4F4F"/>
  
  <rect x="320" y="170" width="30" height="110" fill="#696969"/>
  <polygon points="320,170 335,150 350,170" fill="#2F4F4F"/>
  
  <!-- Castle windows -->
  <rect x="220" y="220" width="10" height="15" fill="#4A4A4A"/>
  <rect x="240" y="220" width="10" height="15" fill="#4A4A4A"/>
  <rect x="260" y="220" width="10" height="15" fill="#4A4A4A"/>
  <rect x="280" y="220" width="10" height="15" fill="#4A4A4A"/>
  <rect x="300" y="220" width="10" height="15" fill="#4A4A4A"/>
  
  <!-- Glass works district -->
  <rect x="850" y="250" width="150" height="80" fill="#E0E0E0"/>
  <polygon points="850,250 925,230 1000,250" fill="#C0C0C0"/>
  
  <!-- Glass factory chimneys -->
  <rect x="870" y="200" width="15" height="100" fill="#8B4513"/>
  <rect x="920" y="190" width="15" height="110" fill="#8B4513"/>
  <rect x="970" y="195" width="15" height="105" fill="#8B4513"/>
  
  <!-- Glass furnaces -->
  <rect x="875" y="270" width="20" height="25" fill="#FF6347"/>
  <rect x="925" y="270" width="20" height="25" fill="#FF6347"/>
  <rect x="975" y="270" width="20" height="25" fill="#FF6347"/>
  
  <!-- Glass products display -->
  <circle cx="890" cy="240" r="3" fill="#87CEEB"/>
  <circle cx="910" cy="240" r="3" fill="#87CEEB"/>
  <circle cx="930" cy="240" r="3" fill="#87CEEB"/>
  <circle cx="950" cy="240" r="3" fill="#87CEEB"/>
  <circle cx="970" cy="240" r="3" fill="#87CEEB"/>
  <circle cx="990" cy="240" r="3" fill="#87CEEB"/>
  
  <!-- Spa resort area -->
  <rect x="50" y="280" width="120" height="90" fill="#F0F8FF"/>
  <polygon points="50,280 110,260 170,280" fill="#4169E1"/>
  <rect x="70" y="305" width="15" height="20" fill="#4A90E2"/>
  <rect x="95" y="305" width="15" height="20" fill="#4A90E2"/>
  <rect x="120" y="305" width="15" height="20" fill="#4A90E2"/>
  <rect x="145" y="305" width="15" height="20" fill="#4A90E2"/>
  <rect x="100" y="340" width="25" height="30" fill="#654321"/>
  
  <!-- Spa symbols -->
  <circle cx="110" cy="270" r="5" fill="#00CED1"/>
  <text x="110" y="274" text-anchor="middle" font-family="serif" font-size="6" fill="#FFFFFF">SPA</text>
  
  <!-- Hiking trails -->
  <path d="M250 400 Q300 350 350 380 Q400 360 450 390 Q500 370 550 400" stroke="#8B4513" stroke-width="3" fill="none" stroke-dasharray="5,3"/>
  <path d="M600 420 Q650 380 700 410 Q750 390 800 420 Q850 400 900 430" stroke="#8B4513" stroke-width="3" fill="none" stroke-dasharray="5,3"/>
  
  <!-- Hikers -->
  <circle cx="350" cy="385" r="3" fill="#FFE4C4"/>
  <rect x="347" y="388" width="6" height="12" fill="#228B22"/>
  <rect x="349" y="400" width="2" height="8" fill="#8B4513"/>
  <!-- Backpack -->
  <rect x="345" y="385" width="4" height="6" fill="#654321"/>
  <!-- Hiking stick -->
  <line x1="354" y1="395" x2="358" y2="385" stroke="#8B4513" stroke-width="2"/>
  
  <circle cx="700" cy="415" r="3" fill="#FFE4C4"/>
  <rect x="697" y="418" width="6" height="12" fill="#4169E1"/>
  <rect x="699" y="430" width="2" height="8" fill="#8B4513"/>
  <rect x="695" y="415" width="4" height="6" fill="#654321"/>
  <line x1="704" y1="425" x2="708" y2="415" stroke="#8B4513" stroke-width="2"/>
  
  <!-- Forest areas -->
  <ellipse cx="150" cy="250" rx="30" ry="40" fill="#228B22"/>
  <ellipse cx="120" cy="230" rx="25" ry="35" fill="#228B22"/>
  <ellipse cx="180" cy="240" rx="20" ry="30" fill="#228B22"/>
  
  <ellipse cx="1050" cy="260" rx="35" ry="45" fill="#228B22"/>
  <ellipse cx="1020" cy="240" rx="30" ry="40" fill="#228B22"/>
  <ellipse cx="1080" cy="250" rx="25" ry="35" fill="#228B22"/>
  
  <!-- Mountain wildlife -->
  <ellipse cx="300" cy="180" rx="4" ry="2" fill="#8B4513"/>
  <circle cx="298" cy="179" r="1" fill="#8B4513"/>
  <!-- Deer -->
  
  <ellipse cx="750" cy="190" rx="3" ry="1.5" fill="#696969"/>
  <circle cx="748" cy="189" r="0.8" fill="#696969"/>
  <!-- Rabbit -->
  
  <!-- Tourist attractions signs -->
  <rect x="400" y="380" width="3" height="20" fill="#8B4513"/>
  <rect x="403" y="380" width="30" height="15" fill="#4169E1"/>
  <text x="418" y="390" text-anchor="middle" font-family="serif" font-size="6" fill="#FFFFFF">ZAMEK</text>
  
  <rect x="850" y="330" width="3" height="20" fill="#8B4513"/>
  <rect x="853" y="330" width="30" height="15" fill="#DC143C"/>
  <text x="868" y="340" text-anchor="middle" font-family="serif" font-size="6" fill="#FFFFFF">SZKŁO</text>
  
  <!-- People in market square -->
  <circle cx="500" cy="390" r="3" fill="#FFE4C4"/>
  <rect x="497" y="393" width="6" height="10" fill="#DC143C"/>
  <rect x="499" y="403" width="2" height="6" fill="#8B4513"/>
  
  <circle cx="650" cy="395" r="3" fill="#FFE4C4"/>
  <rect x="647" y="398" width="6" height="10" fill="#32CD32"/>
  <rect x="649" y="408" width="2" height="6" fill="#8B4513"/>
  
  <circle cx="750" cy="390" r="3" fill="#FFE4C4"/>
  <rect x="747" y="393" width="6" height="10" fill="#9370DB"/>
  <rect x="749" y="403" width="2" height="6" fill="#8B4513"/>
  
  <!-- Market stalls -->
  <rect x="450" y="400" width="30" height="15" fill="#8B4513"/>
  <rect x="450" y="395" width="30" height="5" fill="#FFFFFF"/>
  
  <rect x="720" y="400" width="30" height="15" fill="#8B4513"/>
  <rect x="720" y="395" width="30" height="5" fill="#FFFFFF"/>
  
  <!-- Regional symbols -->
  <polygon points="100,120 105,115 110,120 105,125" fill="#FFD700"/>
  <polygon points="900,110 905,105 910,110 905,115" fill="#FFD700"/>
  <polygon points="1050,130 1055,125 1060,130 1055,135" fill="#FFD700"/>
  
  <!-- Title -->
  <text x="600" y="40" text-anchor="middle" font-family="serif" font-size="36" font-weight="bold" fill="#8B4513">JELENIA GÓRA</text>
  <text x="600" y="70" text-anchor="middle" font-family="serif" font-size="18" fill="#556B2F">Poort naar de Sudeten</text>
</svg>