<svg xmlns="http://www.w3.org/2000/svg" viewBox="0 0 1200 480">
  <defs>
    <linearGradient id="skyGrad" x1="0%" y1="0%" x2="0%" y2="100%">
      <stop offset="0%" style="stop-color:#708090;stop-opacity:1" />
      <stop offset="100%" style="stop-color:#D3D3D3;stop-opacity:1" />
    </linearGradient>
    <linearGradient id="buildingGrad" x1="0%" y1="0%" x2="0%" y2="100%">
      <stop offset="0%" style="stop-color:#C0C0C0;stop-opacity:1" />
      <stop offset="100%" style="stop-color:#696969;stop-opacity:1" />
    </linearGradient>
  </defs>
  
  <!-- Industrial sky -->
  <rect width="1200" height="480" fill="url(#skyGrad)"/>
  
  <!-- Spodek (Flying Saucer) Arena -->
  <ellipse cx="400" cy="200" rx="120" ry="30" fill="#C0C0C0"/>
  <ellipse cx="400" cy="190" rx="100" ry="25" fill="#E0E0E0"/>
  <ellipse cx="400" cy="185" rx="80" ry="20" fill="#F5F5F5"/>
  
  <!-- Spodek support pillars -->
  <rect x="320" y="200" width="8" height="40" fill="#696969"/>
  <rect x="350" y="200" width="8" height="35" fill="#696969"/>
  <rect x="380" y="200" width="8" height="30" fill="#696969"/>
  <rect x="410" y="200" width="8" height="30" fill="#696969"/>
  <rect x="440" y="200" width="8" height="35" fill="#696969"/>
  <rect x="470" y="200" width="8" height="40" fill="#696969"/>
  
  <!-- Modern skyscrapers -->
  <rect x="600" y="100" width="60" height="200" fill="url(#buildingGrad)"/>
  <rect x="610" y="120" width="12" height="15" fill="#4A90E2"/>
  <rect x="630" y="120" width="12" height="15" fill="#4A90E2"/>
  <rect x="610" y="150" width="12" height="15" fill="#4A90E2"/>
  <rect x="630" y="150" width="12" height="15" fill="#4A90E2"/>
  <rect x="610" y="180" width="12" height="15" fill="#4A90E2"/>
  <rect x="630" y="180" width="12" height="15" fill="#4A90E2"/>
  <rect x="610" y="210" width="12" height="15" fill="#4A90E2"/>
  <rect x="630" y="210" width="12" height="15" fill="#4A90E2"/>
  <rect x="610" y="240" width="12" height="15" fill="#4A90E2"/>
  <rect x="630" y="240" width="12" height="15" fill="#4A90E2"/>
  <rect x="610" y="270" width="12" height="15" fill="#4A90E2"/>
  <rect x="630" y="270" width="12" height="15" fill="#4A90E2"/>
  
  <rect x="680" y="80" width="50" height="220" fill="#A9A9A9"/>
  <rect x="690" y="100" width="10" height="12" fill="#4A90E2"/>
  <rect x="710" y="100" width="10" height="12" fill="#4A90E2"/>
  <rect x="690" y="125" width="10" height="12" fill="#4A90E2"/>
  <rect x="710" y="125" width="10" height="12" fill="#4A90E2"/>
  <rect x="690" y="150" width="10" height="12" fill="#4A90E2"/>
  <rect x="710" y="150" width="10" height="12" fill="#4A90E2"/>
  <rect x="690" y="175" width="10" height="12" fill="#4A90E2"/>
  <rect x="710" y="175" width="10" height="12" fill="#4A90E2"/>
  <rect x="690" y="200" width="10" height="12" fill="#4A90E2"/>
  <rect x="710" y="200" width="10" height="12" fill="#4A90E2"/>
  <rect x="690" y="225" width="10" height="12" fill="#4A90E2"/>
  <rect x="710" y="225" width="10" height="12" fill="#4A90E2"/>
  <rect x="690" y="250" width="10" height="12" fill="#4A90E2"/>
  <rect x="710" y="250" width="10" height="12" fill="#4A90E2"/>
  <rect x="690" y="275" width="10" height="12" fill="#4A90E2"/>
  <rect x="710" y="275" width="10" height="12" fill="#4A90E2"/>
  
  <rect x="750" y="120" width="70" height="180" fill="#808080"/>
  <rect x="765" y="140" width="15" height="20" fill="#4A90E2"/>
  <rect x="790" y="140" width="15" height="20" fill="#4A90E2"/>
  <rect x="765" y="175" width="15" height="20" fill="#4A90E2"/>
  <rect x="790" y="175" width="15" height="20" fill="#4A90E2"/>
  <rect x="765" y="210" width="15" height="20" fill="#4A90E2"/>
  <rect x="790" y="210" width="15" height="20" fill="#4A90E2"/>
  <rect x="765" y="245" width="15" height="20" fill="#4A90E2"/>
  <rect x="790" y="245" width="15" height="20" fill="#4A90E2"/>
  
  <!-- Mining headframes (shaft towers) -->
  <rect x="150" y="180" width="15" height="120" fill="#8B4513"/>
  <rect x="140" y="175" width="35" height="8" fill="#654321"/>
  <polygon points="140,175 157.5,160 175,175" fill="#2F4F4F"/>
  <!-- Pulley wheels -->
  <circle cx="157" cy="190" r="6" fill="#696969"/>
  <circle cx="157" cy="190" r="3" fill="#2F2F2F"/>
  <!-- Mining cable -->
  <line x1="157" y1="196" x2="157" y2="280" stroke="#654321" stroke-width="2"/>
  
  <rect x="250" y="200" width="15" height="100" fill="#8B4513"/>
  <rect x="240" y="195" width="35" height="8" fill="#654321"/>
  <polygon points="240,195 257.5,180 275,195" fill="#2F4F4F"/>
  <circle cx="257" cy="210" r="6" fill="#696969"/>
  <circle cx="257" cy="210" r="3" fill="#2F2F2F"/>
  <line x1="257" y1="216" x2="257" y2="280" stroke="#654321" stroke-width="2"/>
  
  <!-- Coal mine buildings -->
  <rect x="100" y="250" width="80" height="50" fill="#696969"/>
  <polygon points="100,250 140,230 180,250" fill="#2F4F4F"/>
  <rect x="115" y="270" width="12" height="15" fill="#4A4A4A"/>
  <rect x="135" y="270" width="12" height="15" fill="#4A4A4A"/>
  <rect x="155" y="270" width="12" height="15" fill="#4A4A4A"/>
  <rect x="125" y="285" width="20" height="15" fill="#654321"/>
  
  <rect x="220" y="260" width="70" height="40" fill="#696969"/>
  <polygon points="220,260 255,245 290,260" fill="#2F4F4F"/>
  <rect x="235" y="275" width="10" height="12" fill="#4A4A4A"/>
  <rect x="255" y="275" width="10" height="12" fill="#4A4A4A"/>
  <rect x="275" y="275" width="10" height="12" fill="#4A4A4A"/>
  <rect x="245" y="287" width="15" height="13" fill="#654321"/>
  
  <!-- Cultural Center -->
  <rect x="900" y="150" width="150" height="100" fill="#E6E6FA"/>
  <polygon points="900,150 975,120 1050,150" fill="#9370DB"/>
  <rect x="920" y="180" width="20" height="30" fill="#4A4A4A"/>
  <rect x="950" y="180" width="20" height="30" fill="#4A4A4A"/>
  <rect x="980" y="180" width="20" height="30" fill="#4A4A4A"/>
  <rect x="1010" y="180" width="20" height="30" fill="#4A4A4A"/>
  <rect x="960" y="220" width="30" height="30" fill="#8B4513"/>
  
  <!-- NOSPR Concert Hall -->
  <rect x="500" y="180" width="80" height="60" fill="#2F4F4F"/>
  <polygon points="500,180 540,160 580,180" fill="#696969"/>
  <rect x="515" y="200" width="15" height="20" fill="#4A90E2"/>
  <rect x="540" y="200" width="15" height="20" fill="#4A90E2"/>
  <rect x="525" y="225" width="20" height="15" fill="#654321"/>
  
  <!-- Silesian Museum -->
  <rect x="800" y="200" width="80" height="50" fill="#DEB887"/>
  <polygon points="800,200 840,185 880,200" fill="#8B7355"/>
  <rect x="815" y="220" width="12" height="15" fill="#4A4A4A"/>
  <rect x="835" y="220" width="12" height="15" fill="#4A4A4A"/>
  <rect x="855" y="220" width="12" height="15" fill="#4A4A4A"/>
  <rect x="825" y="235" width="20" height="15" fill="#654321"/>
  
  <!-- Industrial chimneys with smoke -->
  <rect x="50" y="100" width="20" height="180" fill="#8B4513"/>
  <rect x="45" y="95" width="30" height="15" fill="#696969"/>
  <!-- Smoke -->
  <ellipse cx="65" cy="85" rx="15" ry="8" fill="#D3D3D3" opacity="0.7"/>
  <ellipse cx="80" cy="75" rx="20" ry="10" fill="#D3D3D3" opacity="0.5"/>
  <ellipse cx="100" cy="70" rx="25" ry="12" fill="#D3D3D3" opacity="0.3"/>
  
  <rect x="1150" y="120" width="15" height="160" fill="#8B4513"/>
  <rect x="1147" y="115" width="21" height="10" fill="#696969"/>
  <ellipse cx="1162" cy="105" rx="12" ry="6" fill="#D3D3D3" opacity="0.7"/>
  <ellipse cx="1175" cy="98" rx="18" ry="8" fill="#D3D3D3" opacity="0.5"/>
  <ellipse cx="1190" cy="95" rx="22" ry="10" fill="#D3D3D3" opacity="0.3"/>
  
  <!-- Ground level with industrial character -->
  <rect x="0" y="300" width="1200" height="180" fill="#696969"/>
  
  <!-- Railroad tracks -->
  <rect x="0" y="320" width="1200" height="8" fill="#2F2F2F"/>
  <rect x="0" y="322" width="1200" height="2" fill="#C0C0C0"/>
  <rect x="0" y="326" width="1200" height="2" fill="#C0C0C0"/>
  
  <!-- Railway sleepers -->
  <rect x="50" y="320" width="15" height="8" fill="#8B4513"/>
  <rect x="100" y="320" width="15" height="8" fill="#8B4513"/>
  <rect x="150" y="320" width="15" height="8" fill="#8B4513"/>
  <rect x="200" y="320" width="15" height="8" fill="#8B4513"/>
  <rect x="250" y="320" width="15" height="8" fill="#8B4513"/>
  <rect x="300" y="320" width="15" height="8" fill="#8B4513"/>
  <rect x="350" y="320" width="15" height="8" fill="#8B4513"/>
  <rect x="400" y="320" width="15" height="8" fill="#8B4513"/>
  <rect x="450" y="320" width="15" height="8" fill="#8B4513"/>
  <rect x="500" y="320" width="15" height="8" fill="#8B4513"/>
  <rect x="550" y="320" width="15" height="8" fill="#8B4513"/>
  <rect x="600" y="320" width="15" height="8" fill="#8B4513"/>
  <rect x="650" y="320" width="15" height="8" fill="#8B4513"/>
  <rect x="700" y="320" width="15" height="8" fill="#8B4513"/>
  <rect x="750" y="320" width="15" height="8" fill="#8B4513"/>
  <rect x="800" y="320" width="15" height="8" fill="#8B4513"/>
  <rect x="850" y="320" width="15" height="8" fill="#8B4513"/>
  <rect x="900" y="320" width="15" height="8" fill="#8B4513"/>
  <rect x="950" y="320" width="15" height="8" fill="#8B4513"/>
  <rect x="1000" y="320" width="15" height="8" fill="#8B4513"/>
  <rect x="1050" y="320" width="15" height="8" fill="#8B4513"/>
  <rect x="1100" y="320" width="15" height="8" fill="#8B4513"/>
  <rect x="1150" y="320" width="15" height="8" fill="#8B4513"/>
  
  <!-- Coal train -->
  <rect x="350" y="300" width="100" height="20" fill="#2F2F2F"/>
  <rect x="360" y="305" width="80" height="10" fill="#000000"/>
  <circle cx="365" cy="320" r="6" fill="#696969"/>
  <circle cx="385" cy="320" r="6" fill="#696969"/>
  <circle cx="415" cy="320" r="6" fill="#696969"/>
  <circle cx="435" cy="320" r="6" fill="#696969"/>
  
  <!-- Mine workers -->
  <g id="miner1" transform="translate(180,350)">
    <circle cx="0" cy="0" r="4" fill="#FFE4C4"/>
    <rect x="-4" y="4" width="8" height="12" fill="#2F2F2F"/>
    <rect x="-2" y="16" width="4" height="10" fill="#8B4513"/>
    <!-- Hard hat -->
    <ellipse cx="0" cy="-2" rx="5" ry="3" fill="#FFD700"/>
    <!-- Lamp -->
    <circle cx="0" cy="-2" r="1" fill="#FFFFFF"/>
  </g>
  
  <g id="miner2" transform="translate(280,355)">
    <circle cx="0" cy="0" r="4" fill="#FFE4C4"/>
    <rect x="-4" y="4" width="8" height="12" fill="#2F2F2F"/>
    <rect x="-2" y="16" width="4" height="10" fill="#8B4513"/>
    <ellipse cx="0" cy="-2" rx="5" ry="3" fill="#FFD700"/>
    <circle cx="0" cy="-2" r="1" fill="#FFFFFF"/>
  </g>
  
  <!-- Cultural visitors -->
  <circle cx="950" cy="360" r="3" fill="#FFE4C4"/>
  <rect x="947" y="363" width="6" height="10" fill="#4169E1"/>
  <rect x="949" y="373" width="2" height="6" fill="#8B4513"/>
  
  <circle cx="420" cy="365" r="3" fill="#FFE4C4"/>
  <rect x="417" y="368" width="6" height="10" fill="#DC143C"/>
  <rect x="419" y="378" width="2" height="6" fill="#8B4513"/>
  
  <!-- Industrial heritage symbols -->
  <polygon points="120,340 125,335 130,340 125,345" fill="#FFD700"/>
  <polygon points="320,345 325,340 330,345 325,350" fill="#FFD700"/>
  
  <!-- Street lamps -->
  <rect x="200" y="350" width="3" height="25" fill="#2F2F2F"/>
  <ellipse cx="201.5" cy="347" rx="4" ry="3" fill="#FFD700"/>
  
  <rect x="600" y="350" width="3" height="25" fill="#2F2F2F"/>
  <ellipse cx="601.5" cy="347" rx="4" ry="3" fill="#FFD700"/>
  
  <rect x="1000" y="350" width="3" height="25" fill="#2F2F2F"/>
  <ellipse cx="1001.5" cy="347" rx="4" ry="3" fill="#FFD700"/>
  
  <!-- Trees adapted to industrial environment -->
  <ellipse cx="80" cy="340" rx="15" ry="20" fill="#556B2F"/>
  <rect x="78" y="350" width="4" height="20" fill="#8B4513"/>
  
  <ellipse cx="1120" cy="345" rx="18" ry="25" fill="#556B2F"/>
  <rect x="1118" y="360" width="4" height="25" fill="#8B4513"/>
  
  <!-- Title -->
  <text x="600" y="40" text-anchor="middle" font-family="serif" font-size="36" font-weight="bold" fill="#2F2F4F">KATOWICE</text>
  <text x="600" y="70" text-anchor="middle" font-family="serif" font-size="18" fill="#696969">Industrieel Cultuurcentrum</text>
</svg>