<svg xmlns="http://www.w3.org/2000/svg" viewBox="0 0 1200 480">
  <defs>
    <linearGradient id="skyGrad" x1="0%" y1="0%" x2="0%" y2="100%">
      <stop offset="0%" style="stop-color:#87CEEB;stop-opacity:1" />
      <stop offset="100%" style="stop-color:#F0F8FF;stop-opacity:1" />
    </linearGradient>
    <linearGradient id="palaceGrad" x1="0%" y1="0%" x2="0%" y2="100%">
      <stop offset="0%" style="stop-color:#F0E68C;stop-opacity:1" />
      <stop offset="100%" style="stop-color:#BDB76B;stop-opacity:1" />
    </linearGradient>
  </defs>
  
  <!-- Sky background -->
  <rect width="1200" height="480" fill="url(#skyGrad)"/>
  
  <!-- Bishop's Palace -->
  <rect x="400" y="160" width="400" height="140" fill="url(#palaceGrad)"/>
  <polygon points="400,160 600,130 800,160" fill="#DAA520"/>
  
  <!-- Palace central section -->
  <rect x="550" y="120" width="100" height="180" fill="#F5F5DC"/>
  <polygon points="550,120 600,90 650,120" fill="#DAA520"/>
  
  <!-- Palace windows -->
  <rect x="420" y="190" width="15" height="25" fill="#4A4A4A"/>
  <rect x="445" y="190" width="15" height="25" fill="#4A4A4A"/>
  <rect x="470" y="190" width="15" height="25" fill="#4A4A4A"/>
  <rect x="495" y="190" width="15" height="25" fill="#4A4A4A"/>
  <rect x="705" y="190" width="15" height="25" fill="#4A4A4A"/>
  <rect x="730" y="190" width="15" height="25" fill="#4A4A4A"/>
  <rect x="755" y="190" width="15" height="25" fill="#4A4A4A"/>
  <rect x="780" y="190" width="15" height="25" fill="#4A4A4A"/>
  
  <rect x="570" y="150" width="12" height="20" fill="#4A4A4A"/>
  <rect x="590" y="150" width="12" height="20" fill="#4A4A4A"/>
  <rect x="610" y="150" width="12" height="20" fill="#4A4A4A"/>
  <rect x="630" y="150" width="12" height="20" fill="#4A4A4A"/>
  
  <!-- Palace entrance -->
  <rect x="585" y="250" width="30" height="50" fill="#8B4513"/>
  <polygon points="585,250 600,230 615,250" fill="#DAA520"/>
  
  <!-- Cathedral -->
  <rect x="200" y="180" width="120" height="120" fill="#F5F5DC"/>
  <polygon points="200,180 260,150 320,180" fill="#8B4513"/>
  
  <!-- Cathedral towers -->
  <rect x="220" y="120" width="30" height="180" fill="#DEB887"/>
  <polygon points="220,120 235,90 250,120" fill="#B8860B"/>
  
  <rect x="290" y="120" width="30" height="180" fill="#DEB887"/>
  <polygon points="290,120 305,90 320,120" fill="#B8860B"/>
  
  <!-- Cathedral windows -->
  <rect x="230" y="210" width="15" height="30" fill="#4169E1"/>
  <polygon points="230,210 237.5,200 245,210" fill="#4169E1"/>
  
  <rect x="265" y="210" width="15" height="30" fill="#4169E1"/>
  <polygon points="265,210 272.5,200 280,210" fill="#4169E1"/>
  
  <!-- Cathedral entrance -->
  <rect x="245" y="250" width="30" height="50" fill="#654321"/>
  <polygon points="245,250 260,235 275,250" fill="#8B4513"/>
  
  <!-- Świętokrzyskie Mountains in background -->
  <polygon points="0,120 150,100 300,90 450,95 600,85 750,100 900,95 1050,110 1200,120 1200,480 0,480" fill="#8FBC8F" opacity="0.7"/>
  
  <!-- Forest line -->
  <ellipse cx="100" cy="200" rx="30" ry="40" fill="#228B22"/>
  <ellipse cx="150" cy="190" rx="25" ry="35" fill="#228B22"/>
  <ellipse cx="200" cy="200" rx="30" ry="40" fill="#228B22"/>
  <ellipse cx="1000" cy="210" rx="35" ry="45" fill="#228B22"/>
  <ellipse cx="1050" cy="200" rx="30" ry="40" fill="#228B22"/>
  <ellipse cx="1100" cy="190" rx="25" ry="35" fill="#228B22"/>
  <ellipse cx="1150" cy="200" rx="30" ry="40" fill="#228B22"/>
  
  <!-- National Geological Museum -->
  <rect x="850" y="220" width="150" height="80" fill="#D3D3D3"/>
  <polygon points="850,220 925,200 1000,220" fill="#A9A9A9"/>
  <rect x="870" y="250" width="20" height="25" fill="#4A4A4A"/>
  <rect x="900" y="250" width="20" height="25" fill="#4A4A4A"/>
  <rect x="930" y="250" width="20" height="25" fill="#4A4A4A"/>
  <rect x="960" y="250" width="20" height="25" fill="#4A4A4A"/>
  <rect x="910" y="280" width="30" height="20" fill="#654321"/>
  
  <!-- Geological specimens display -->
  <circle cx="880" cy="240" r="3" fill="#8B4513"/>
  <circle cx="890" cy="240" r="3" fill="#696969"/>
  <circle cx="940" cy="240" r="3" fill="#FFD700"/>
  <circle cx="950" cy="240" r="3" fill="#DC143C"/>
  <circle cx="970" cy="240" r="3" fill="#32CD32"/>
  <circle cx="980" cy="240" r="3" fill="#4169E1"/>
  
  <!-- Modern university campus -->
  <rect x="50" y="260" width="120" height="90" fill="#E0E0E0"/>
  <polygon points="50,260 110,240 170,260" fill="#C0C0C0"/>
  <rect x="70" y="285" width="15" height="20" fill="#4A90E2"/>
  <rect x="95" y="285" width="15" height="20" fill="#4A90E2"/>
  <rect x="120" y="285" width="15" height="20" fill="#4A90E2"/>
  <rect x="145" y="285" width="15" height="20" fill="#4A90E2"/>
  <rect x="100" y="320" width="25" height="30" fill="#654321"/>
  
  <!-- Old town market square -->
  <rect x="350" y="350" width="500" height="130" fill="#DEB887"/>
  
  <!-- Historic houses around square -->
  <rect x="370" y="330" width="60" height="80" fill="#FFE4B5"/>
  <polygon points="370,330 400,310 430,330" fill="#DEB887"/>
  <rect x="385" y="355" width="10" height="15" fill="#4A4A4A"/>
  <rect x="405" y="355" width="10" height="15" fill="#4A4A4A"/>
  <rect x="390" y="385" width="20" height="25" fill="#654321"/>
  
  <rect x="450" y="325" width="70" height="85" fill="#F0E68C"/>
  <polygon points="450,325 485,305 520,325" fill="#BDB76B"/>
  <rect x="470" y="350" width="12" height="18" fill="#4A4A4A"/>
  <rect x="492" y="350" width="12" height="18" fill="#4A4A4A"/>
  <rect x="475" y="385" width="20" height="25" fill="#654321"/>
  
  <rect x="540" y="330" width="60" height="80" fill="#DDA0DD"/>
  <polygon points="540,330 570,310 600,330" fill="#8B008B"/>
  <rect x="555" y="355" width="10" height="15" fill="#4A4A4A"/>
  <rect x="575" y="355" width="10" height="15" fill="#4A4A4A"/>
  <rect x="560" y="385" width="20" height="25" fill="#654321"/>
  
  <rect x="620" y="325" width="70" height="85" fill="#98FB98"/>
  <polygon points="620,325 655,305 690,325" fill="#228B22"/>
  <rect x="640" y="350" width="12" height="18" fill="#4A4A4A"/>
  <rect x="662" y="350" width="12" height="18" fill="#4A4A4A"/>
  <rect x="645" y="385" width="20" height="25" fill="#654321"/>
  
  <rect x="710" y="330" width="60" height="80" fill="#FFB6C1"/>
  <polygon points="710,330 740,310 770,330" fill="#FF69B4"/>
  <rect x="725" y="355" width="10" height="15" fill="#4A4A4A"/>
  <rect x="745" y="355" width="10" height="15" fill="#4A4A4A"/>
  <rect x="730" y="385" width="20" height="25" fill="#654321"/>
  
  <rect x="790" y="325" width="70" height="85" fill="#F0E68C"/>
  <polygon points="790,325 825,305 860,325" fill="#BDB76B"/>
  <rect x="810" y="350" width="12" height="18" fill="#4A4A4A"/>
  <rect x="832" y="350" width="12" height="18" fill="#4A4A4A"/>
  <rect x="815" y="385" width="20" height="25" fill="#654321"/>
  
  <!-- Town Hall -->
  <rect x="580" y="300" width="80" height="70" fill="#F5F5DC"/>
  <polygon points="580,300 620,280 660,300" fill="#DAA520"/>
  <rect x="600" y="320" width="12" height="18" fill="#4A4A4A"/>
  <rect x="628" y="320" width="12" height="18" fill="#4A4A4A"/>
  <rect x="610" y="350" width="20" height="20" fill="#654321"/>
  
  <!-- Clock tower -->
  <rect x="615" y="250" width="20" height="80" fill="#DEB887"/>
  <polygon points="615,250 625,230 635,250" fill="#B8860B"/>
  <circle cx="625" cy="270" r="8" fill="#F5F5DC" stroke="#8B4513" stroke-width="1"/>
  <line x1="625" y1="270" x2="625" y2="264" stroke="#8B4513" stroke-width="1"/>
  <line x1="625" y1="270" x2="629" y2="270" stroke="#8B4513" stroke-width="1"/>
  
  <!-- Park areas -->
  <ellipse cx="200" cy="400" rx="50" ry="60" fill="#228B22"/>
  <circle cx="170" cy="375" r="4" fill="#FF69B4"/>
  <circle cx="190" cy="385" r="4" fill="#9370DB"/>
  <circle cx="210" cy="395" r="4" fill="#FFD700"/>
  <circle cx="230" cy="405" r="4" fill="#FF1493"/>
  <circle cx="180" cy="415" r="4" fill="#32CD32"/>
  <circle cx="220" cy="425" r="4" fill="#FF6347"/>
  
  <ellipse cx="1000" cy="420" rx="60" ry="70" fill="#228B22"/>
  <circle cx="965" cy="390" r="5" fill="#4169E1"/>
  <circle cx="985" cy="400" r="5" fill="#DC143C"/>
  <circle cx="1015" cy="410" r="5" fill="#FFD700"/>
  <circle cx="1035" cy="420" r="5" fill="#9370DB"/>
  <circle cx="975" cy="440" r="5" fill="#32CD32"/>
  <circle cx="1025" cy="450" r="5" fill="#FF6347"/>
  
  <!-- People in square -->
  <circle cx="500" cy="420" r="3" fill="#FFE4C4"/>
  <rect x="497" y="423" width="6" height="10" fill="#4169E1"/>
  <rect x="499" y="433" width="2" height="6" fill="#8B4513"/>
  
  <circle cx="650" cy="425" r="3" fill="#FFE4C4"/>
  <rect x="647" y="428" width="6" height="10" fill="#DC143C"/>
  <rect x="649" y="438" width="2" height="6" fill="#8B4513"/>
  
  <circle cx="750" cy="420" r="3" fill="#FFE4C4"/>
  <rect x="747" y="423" width="6" height="10" fill="#228B22"/>
  <rect x="749" y="433" width="2" height="6" fill="#8B4513"/>
  
  <!-- Market stalls -->
  <rect x="450" y="430" width="30" height="15" fill="#8B4513"/>
  <rect x="450" y="425" width="30" height="5" fill="#FFFFFF"/>
  
  <rect x="620" y="430" width="30" height="15" fill="#8B4513"/>
  <rect x="620" y="425" width="30" height="5" fill="#FFFFFF"/>
  
  <rect x="780" y="430" width="30" height="15" fill="#8B4513"/>
  <rect x="780" y="425" width="30" height="5" fill="#FFFFFF"/>
  
  <!-- Street lamps -->
  <rect x="400" y="440" width="3" height="25" fill="#2F2F2F"/>
  <ellipse cx="401.5" cy="437" rx="4" ry="3" fill="#FFD700"/>
  
  <rect x="700" y="440" width="3" height="25" fill="#2F2F2F"/>
  <ellipse cx="701.5" cy="437" rx="4" ry="3" fill="#FFD700"/>
  
  <!-- Regional symbols -->
  <polygon points="150,150 155,145 160,150 155,155" fill="#FFD700"/>
  <polygon points="950,160 955,155 960,160 955,165" fill="#FFD700"/>
  <polygon points="1050,140 1055,135 1060,140 1055,145" fill="#FFD700"/>
  
  <!-- Trees in city -->
  <ellipse cx="80" cy="380" rx="20" ry="25" fill="#228B22"/>
  <rect x="78" y="395" width="4" height="20" fill="#8B4513"/>
  
  <ellipse cx="1120" cy="350" rx="25" ry="30" fill="#228B22"/>
  <rect x="1118" y="370" width="4" height="25" fill="#8B4513"/>
  
  <!-- Title -->
  <text x="600" y="40" text-anchor="middle" font-family="serif" font-size="36" font-weight="bold" fill="#8B4513">KIELCE</text>
  <text x="600" y="70" text-anchor="middle" font-family="serif" font-size="18" fill="#A0522D">Hart van de Heilige Kruisbergen</text>
</svg>