<svg xmlns="http://www.w3.org/2000/svg" viewBox="0 0 1200 480">
  <defs>
    <linearGradient id="skyGrad" x1="0%" y1="0%" x2="0%" y2="100%">
      <stop offset="0%" style="stop-color:#87CEEB;stop-opacity:1" />
      <stop offset="100%" style="stop-color:#F0F8FF;stop-opacity:1" />
    </linearGradient>
    <linearGradient id="lakeGrad" x1="0%" y1="0%" x2="0%" y2="100%">
      <stop offset="0%" style="stop-color:#4682B4;stop-opacity:1" />
      <stop offset="100%" style="stop-color:#1E90FF;stop-opacity:1" />
    </linearGradient>
  </defs>
  
  <!-- Sky background -->
  <rect width="1200" height="480" fill="url(#skyGrad)"/>
  
  <!-- Masurian Lakes -->
  <ellipse cx="300" cy="350" rx="180" ry="80" fill="url(#lakeGrad)"/>
  <ellipse cx="700" cy="380" rx="200" ry="70" fill="url(#lakeGrad)"/>
  <ellipse cx="1000" cy="360" rx="150" ry="60" fill="url(#lakeGrad)"/>
  
  <!-- Lake reflections -->
  <ellipse cx="300" cy="350" rx="150" ry="60" fill="#87CEEB" opacity="0.3"/>
  <ellipse cx="700" cy="380" rx="170" ry="50" fill="#87CEEB" opacity="0.3"/>
  <ellipse cx="1000" cy="360" rx="120" ry="40" fill="#87CEEB" opacity="0.3"/>
  
  <!-- Olsztyn Castle -->
  <rect x="500" y="180" width="200" height="120" fill="#8B4513"/>
  <polygon points="500,180 600,150 700,180" fill="#A0522D"/>
  
  <!-- Castle towers -->
  <rect x="480" y="150" width="40" height="150" fill="#654321"/>
  <polygon points="480,150 500,120 520,150" fill="#8B4513"/>
  
  <rect x="700" y="150" width="40" height="150" fill="#654321"/>
  <polygon points="700,150 720,120 740,150" fill="#8B4513"/>
  
  <!-- Castle keep -->
  <rect x="580" y="120" width="40" height="180" fill="#8B4513"/>
  <polygon points="580,120 600,90 620,120" fill="#654321"/>
  
  <!-- Castle windows -->
  <rect x="520" y="200" width="12" height="20" fill="#4A4A4A"/>
  <rect x="540" y="200" width="12" height="20" fill="#4A4A4A"/>
  <rect x="648" y="200" width="12" height="20" fill="#4A4A4A"/>
  <rect x="668" y="200" width="12" height="20" fill="#4A4A4A"/>
  
  <rect x="590" y="150" width="10" height="15" fill="#4A4A4A"/>
  <rect x="610" y="150" width="10" height="15" fill="#4A4A4A"/>
  
  <!-- Castle entrance -->
  <rect x="585" y="250" width="30" height="50" fill="#654321"/>
  <polygon points="585,250 600,235 615,250" fill="#8B4513"/>
  
  <!-- Copernicus connection (he lived here) -->
  <rect x="550" y="210" width="100" height="15" fill="#DAA520"/>
  <text x="600" y="220" text-anchor="middle" font-family="serif" font-size="8" fill="#8B4513">COPERNICUS 1516-1521</text>
  
  <!-- Old Town -->
  <rect x="400" y="250" width="400" height="100" fill="#DEB887"/>
  
  <!-- Gothic cathedral -->
  <rect x="350" y="200" width="80" height="100" fill="#F5F5DC"/>
  <polygon points="350,200 390,180 430,200" fill="#8B4513"/>
  
  <!-- Cathedral spires -->
  <rect x="370" y="150" width="20" height="150" fill="#696969"/>
  <polygon points="370,150 380,120 390,150" fill="#2F4F4F"/>
  
  <rect x="400" y="150" width="20" height="150" fill="#696969"/>
  <polygon points="400,150 410,120 420,150" fill="#2F4F4F"/>
  
  <!-- Gothic windows -->
  <rect x="365" y="220" width="12" height="25" fill="#4169E1"/>
  <polygon points="365,220 371,210 377,220" fill="#4169E1"/>
  
  <rect x="395" y="220" width="12" height="25" fill="#4169E1"/>
  <polygon points="395,220 401,210 407,220" fill="#4169E1"/>
  
  <!-- Town houses -->
  <rect x="450" y="270" width="50" height="60" fill="#FFE4B5"/>
  <polygon points="450,270 475,250 500,270" fill="#DEB887"/>
  <rect x="465" y="295" width="8" height="12" fill="#4A4A4A"/>
  <rect x="478" y="295" width="8" height="12" fill="#4A4A4A"/>
  <rect x="470" y="315" width="15" height="15" fill="#654321"/>
  
  <rect x="520" y="265" width="60" height="65" fill="#F0E68C"/>
  <polygon points="520,265 550,245 580,265" fill="#BDB76B"/>
  <rect x="535" y="290" width="10" height="15" fill="#4A4A4A"/>
  <rect x="555" y="290" width="10" height="15" fill="#4A4A4A"/>
  <rect x="542" y="310" width="16" height="20" fill="#654321"/>
  
  <rect x="600" y="270" width="50" height="60" fill="#DDA0DD"/>
  <polygon points="600,270 625,250 650,270" fill="#8B008B"/>
  <rect x="615" y="295" width="8" height="12" fill="#4A4A4A"/>
  <rect x="628" y="295" width="8" height="12" fill="#4A4A4A"/>
  <rect x="620" y="315" width="15" height="15" fill="#654321"/>
  
  <rect x="670" y="265" width="60" height="65" fill="#98FB98"/>
  <polygon points="670,265 700,245 730,265" fill="#228B22"/>
  <rect x="685" y="290" width="10" height="15" fill="#4A4A4A"/>
  <rect x="705" y="290" width="10" height="15" fill="#4A4A4A"/>
  <rect x="692" y="310" width="16" height="20" fill="#654321"/>
  
  <rect x="750" y="270" width="50" height="60" fill="#FFB6C1"/>
  <polygon points="750,270 775,250 800,270" fill="#FF69B4"/>
  <rect x="765" y="295" width="8" height="12" fill="#4A4A4A"/>
  <rect x="778" y="295" width="8" height="12" fill="#4A4A4A"/>
  <rect x="770" y="315" width="15" height="15" fill="#654321"/>
  
  <!-- Sailing boats on lakes -->
  <g id="sailboat1" transform="translate(250,340)">
    <ellipse cx="0" cy="0" rx="15" ry="6" fill="#8B4513"/>
    <rect x="-2" y="-15" width="4" height="15" fill="#654321"/>
    <polygon points="-2,-15 8,-12 -2,-5" fill="#FFFFFF"/>
  </g>
  
  <g id="sailboat2" transform="translate(350,360)">
    <ellipse cx="0" cy="0" rx="12" ry="5" fill="#8B4513"/>
    <rect x="-1" y="-12" width="2" height="12" fill="#654321"/>
    <polygon points="-1,-12 6,-10 -1,-4" fill="#FFFFFF"/>
  </g>
  
  <g id="sailboat3" transform="translate(750,390)">
    <ellipse cx="0" cy="0" rx="18" ry="7" fill="#8B4513"/>
    <rect x="-2" y="-18" width="4" height="18" fill="#654321"/>
    <polygon points="-2,-18 10,-15 -2,-6" fill="#FFFFFF"/>
  </g>
  
  <g id="sailboat4" transform="translate(1050,370)">
    <ellipse cx="0" cy="0" rx="14" ry="6" fill="#8B4513"/>
    <rect x="-1" y="-14" width="3" height="14" fill="#654321"/>
    <polygon points="-1,-14 7,-12 -1,-5" fill="#FFFFFF"/>
  </g>
  
  <!-- University of Warmia and Mazury -->
  <rect x="850" y="200" width="150" height="80" fill="#E0E0E0"/>
  <polygon points="850,200 925,180 1000,200" fill="#C0C0C0"/>
  <rect x="870" y="225" width="15" height="20" fill="#4A90E2"/>
  <rect x="895" y="225" width="15" height="20" fill="#4A90E2"/>
  <rect x="920" y="225" width="15" height="20" fill="#4A90E2"/>
  <rect x="945" y="225" width="15" height="20" fill="#4A90E2"/>
  <rect x="970" y="225" width="15" height="20" fill="#4A90E2"/>
  <rect x="910" y="255" width="30" height="25" fill="#654321"/>
  
  <!-- Modern business district -->
  <rect x="100" y="220" width="60" height="120" fill="#A9A9A9"/>
  <rect x="115" y="240" width="10" height="12" fill="#4A90E2"/>
  <rect x="135" y="240" width="10" height="12" fill="#4A90E2"/>
  <rect x="115" y="265" width="10" height="12" fill="#4A90E2"/>
  <rect x="135" y="265" width="10" height="12" fill="#4A90E2"/>
  <rect x="115" y="290" width="10" height="12" fill="#4A90E2"/>
  <rect x="135" y="290" width="10" height="12" fill="#4A90E2"/>
  <rect x="115" y="315" width="10" height="12" fill="#4A90E2"/>
  <rect x="135" y="315" width="10" height="12" fill="#4A90E2"/>
  
  <rect x="180" y="200" width="70" height="140" fill="#C0C0C0"/>
  <rect x="200" y="220" width="12" height="15" fill="#4A90E2"/>
  <rect x="220" y="220" width="12" height="15" fill="#4A90E2"/>
  <rect x="200" y="250" width="12" height="15" fill="#4A90E2"/>
  <rect x="220" y="250" width="12" height="15" fill="#4A90E2"/>
  <rect x="200" y="280" width="12" height="15" fill="#4A90E2"/>
  <rect x="220" y="280" width="12" height="15" fill="#4A90E2"/>
  <rect x="200" y="310" width="12" height="15" fill="#4A90E2"/>
  <rect x="220" y="310" width="12" height="15" fill="#4A90E2"/>
  
  <!-- Natural forest areas -->
  <ellipse cx="50" cy="300" rx="30" ry="40" fill="#228B22"/>
  <ellipse cx="20" cy="280" rx="20" ry="30" fill="#228B22"/>
  <ellipse cx="80" cy="320" rx="25" ry="35" fill="#228B22"/>
  
  <ellipse cx="1150" cy="290" rx="35" ry="45" fill="#228B22"/>
  <ellipse cx="1120" cy="250" rx="25" ry="35" fill="#228B22"/>
  <ellipse cx="1180" cy="320" rx="20" ry="30" fill="#228B22"/>
  
  <!-- Water sports activities -->
  <g id="kayak1" transform="translate(320,370)">
    <ellipse cx="0" cy="0" rx="12" ry="3" fill="#FFD700"/>
    <circle cx="-3" cy="-1" r="2" fill="#FFE4C4"/>
    <line x1="3" y1="-2" x2="8" y2="-5" stroke="#8B4513" stroke-width="1"/>
  </g>
  
  <g id="kayak2" transform="translate(680,395)">
    <ellipse cx="0" cy="0" rx="10" ry="2.5" fill="#DC143C"/>
    <circle cx="-2" cy="-1" r="1.5" fill="#FFE4C4"/>
    <line x1="2" y1="-1" x2="6" y2="-3" stroke="#8B4513" stroke-width="1"/>
  </g>
  
  <!-- Fishing boats -->
  <g id="fishingBoat" transform="translate(950,375)">
    <ellipse cx="0" cy="0" rx="20" ry="8" fill="#8B4513"/>
    <rect x="-15" y="-5" width="30" height="3" fill="#654321"/>
    <circle cx="-10" cy="-3" r="2" fill="#FFE4C4"/>
    <circle cx="10" cy="-3" r="2" fill="#FFE4C4"/>
    <line x1="0" y1="-8" x2="0" y2="-15" stroke="#654321" stroke-width="2"/>
  </g>
  
  <!-- Beach areas -->
  <ellipse cx="200" cy="420" rx="80" ry="20" fill="#F5DEB3"/>
  <ellipse cx="800" cy="440" rx="100" ry="25" fill="#F5DEB3"/>
  
  <!-- People enjoying lakes -->
  <circle cx="180" cy="425" r="2" fill="#FFE4C4"/>
  <rect x="178" y="427" width="4" height="8" fill="#FF69B4"/>
  <rect x="179" y="435" width="2" height="5" fill="#8B4513"/>
  
  <circle cx="220" cy="430" r="2" fill="#FFE4C4"/>
  <rect x="218" y="432" width="4" height="8" fill="#4169E1"/>
  <rect x="219" y="440" width="2" height="5" fill="#8B4513"/>
  
  <circle cx="780" cy="445" r="2" fill="#FFE4C4"/>
  <rect x="778" y="447" width="4" height="8" fill="#32CD32"/>
  <rect x="779" y="455" width="2" height="5" fill="#8B4513"/>
  
  <circle cx="820" cy="450" r="2" fill="#FFE4C4"/>
  <rect x="818" y="452" width="4" height="8" fill="#FFD700"/>
  <rect x="819" y="460" width="2" height="5" fill="#8B4513"/>
  
  <!-- Seagulls -->
  <path d="M150 200 Q155 195 160 200 Q165 195 170 200" stroke="#FFFFFF" stroke-width="2" fill="none"/>
  <path d="M400 180 Q405 175 410 180 Q415 175 420 180" stroke="#FFFFFF" stroke-width="2" fill="none"/>
  <path d="M850 160 Q855 155 860 160 Q865 155 870 160" stroke="#FFFFFF" stroke-width="2" fill="none"/>
  
  <!-- Title -->
  <text x="600" y="40" text-anchor="middle" font-family="serif" font-size="36" font-weight="bold" fill="#4169E1">OLSZTYN</text>
  <text x="600" y="70" text-anchor="middle" font-family="serif" font-size="18" fill="#1E90FF">Hoofdstad van Mazurië</text>
</svg>