<svg xmlns="http://www.w3.org/2000/svg" viewBox="0 0 1200 480">
  <defs>
    <linearGradient id="skyGrad" x1="0%" y1="0%" x2="0%" y2="100%">
      <stop offset="0%" style="stop-color:#87CEEB;stop-opacity:1" />
      <stop offset="100%" style="stop-color:#F0F8FF;stop-opacity:1" />
    </linearGradient>
    <linearGradient id="amphitheaterGrad" x1="0%" y1="0%" x2="0%" y2="100%">
      <stop offset="0%" style="stop-color:#F5F5DC;stop-opacity:1" />
      <stop offset="100%" style="stop-color:#D3D3D3;stop-opacity:1" />
    </linearGradient>
  </defs>
  
  <!-- Sky background -->
  <rect width="1200" height="480" fill="url(#skyGrad)"/>
  
  <!-- Odra River -->
  <path d="M0 350 Q300 340 600 345 Q900 350 1200 355 L1200 480 L0 480 Z" fill="#4682B4" opacity="0.7"/>
  
  <!-- Amphitheater (symbol of Opole Festival) -->
  <g id="amphitheater" transform="translate(400,200)">
    <!-- Stage -->
    <rect x="0" y="100" width="400" height="50" fill="url(#amphitheaterGrad)"/>
    <!-- Seating tiers -->
    <path d="M50 100 Q200 80 350 100 L350 150 Q200 130 50 150 Z" fill="#E0E0E0"/>
    <path d="M75 85 Q200 70 325 85 L325 130 Q200 115 75 130 Z" fill="#D3D3D3"/>
    <path d="M100 75 Q200 65 300 75 L300 115 Q200 105 100 115 Z" fill="#C0C0C0"/>
    <!-- Stage canopy -->
    <polygon points="0,100 200,80 400,100 350,120 50,120" fill="#696969"/>
    <!-- Support pillars -->
    <rect x="50" y="100" width="8" height="30" fill="#2F2F2F"/>
    <rect x="150" y="95" width="8" height="35" fill="#2F2F2F"/>
    <rect x="250" y="95" width="8" height="35" fill="#2F2F2F"/>
    <rect x="350" y="100" width="8" height="30" fill="#2F2F2F"/>
  </g>
  
  <!-- Musicians on stage -->
  <g id="musicians" transform="translate(550,290)">
    <circle cx="0" cy="0" r="3" fill="#FFE4C4"/>
    <rect x="-3" y="3" width="6" height="10" fill="#000000"/>
    <rect x="-1" y="13" width="2" height="6" fill="#8B4513"/>
    <!-- Guitar -->
    <ellipse cx="-8" cy="8" rx="3" ry="6" fill="#8B4513"/>
    <line x1="-8" y1="2" x2="-8" y2="14" stroke="#654321" stroke-width="1"/>
    
    <circle cx="15" cy="0" r="3" fill="#FFE4C4"/>
    <rect x="12" y="3" width="6" height="10" fill="#DC143C"/>
    <rect x="14" y="13" width="2" height="6" fill="#8B4513"/>
    <!-- Microphone -->
    <circle cx="20" cy="5" r="2" fill="#696969"/>
    <line x1="20" y1="7" x2="20" y2="12" stroke="#2F2F2F" stroke-width="1"/>
    
    <circle cx="30" cy="0" r="3" fill="#FFE4C4"/>
    <rect x="27" y="3" width="6" height="10" fill="#4169E1"/>
    <rect x="29" y="13" width="2" height="6" fill="#8B4513"/>
    <!-- Drums -->
    <circle cx="35" cy="10" r="4" fill="#8B4513"/>
    <circle cx="40" cy="8" r="3" fill="#8B4513"/>
  </g>
  
  <!-- Piast Tower -->
  <rect x="200" y="150" width="50" height="180" fill="#8B4513"/>
  <polygon points="200,150 225,120 250,150" fill="#654321"/>
  <rect x="215" y="180" width="12" height="20" fill="#4A4A4A"/>
  <rect x="215" y="210" width="12" height="20" fill="#4A4A4A"/>
  <rect x="215" y="240" width="12" height="20" fill="#4A4A4A"/>
  <rect x="215" y="270" width="12" height="20" fill="#4A4A4A"/>
  <rect x="215" y="300" width="12" height="20" fill="#4A4A4A"/>
  
  <!-- Regional Museum -->
  <rect x="900" y="180" width="120" height="80" fill="#F5F5DC"/>
  <polygon points="900,180 960,160 1020,180" fill="#DAA520"/>
  <rect x="920" y="205" width="15" height="20" fill="#4A4A4A"/>
  <rect x="945" y="205" width="15" height="20" fill="#4A4A4A"/>
  <rect x="970" y="205" width="15" height="20" fill="#4A4A4A"/>
  <rect x="995" y="205" width="15" height="20" fill="#4A4A4A"/>
  <rect x="950" y="240" width="25" height="20" fill="#654321"/>
  
  <!-- University of Opole -->
  <rect x="50" y="200" width="130" height="90" fill="#E0E0E0"/>
  <polygon points="50,200 115,180 180,200" fill="#C0C0C0"/>
  <rect x="70" y="225" width="15" height="20" fill="#4A90E2"/>
  <rect x="95" y="225" width="15" height="20" fill="#4A90E2"/>
  <rect x="120" y="225" width="15" height="20" fill="#4A90E2"/>
  <rect x="145" y="225" width="15" height="20" fill="#4A90E2"/>
  <rect x="105" y="260" width="25" height="30" fill="#654321"/>
  
  <!-- Old Town market square -->
  <rect x="300" y="350" width="600" height="130" fill="#DEB887"/>
  
  <!-- Historic buildings around square -->
  <rect x="320" y="330" width="60" height="80" fill="#FFE4B5"/>
  <polygon points="320,330 350,310 380,330" fill="#DEB887"/>
  <rect x="335" y="355" width="10" height="15" fill="#4A4A4A"/>
  <rect x="355" y="355" width="10" height="15" fill="#4A4A4A"/>
  <rect x="340" y="385" width="20" height="25" fill="#654321"/>
  
  <rect x="400" y="325" width="70" height="85" fill="#F0E68C"/>
  <polygon points="400,325 435,305 470,325" fill="#BDB76B"/>
  <rect x="420" y="350" width="12" height="18" fill="#4A4A4A"/>
  <rect x="442" y="350" width="12" height="18" fill="#4A4A4A"/>
  <rect x="425" y="385" width="20" height="25" fill="#654321"/>
  
  <rect x="490" y="330" width="60" height="80" fill="#DDA0DD"/>
  <polygon points="490,330 520,310 550,330" fill="#8B008B"/>
  <rect x="505" y="355" width="10" height="15" fill="#4A4A4A"/>
  <rect x="525" y="355" width="10" height="15" fill="#4A4A4A"/>
  <rect x="510" y="385" width="20" height="25" fill="#654321"/>
  
  <rect x="570" y="325" width="70" height="85" fill="#98FB98"/>
  <polygon points="570,325 605,305 640,325" fill="#228B22"/>
  <rect x="590" y="350" width="12" height="18" fill="#4A4A4A"/>
  <rect x="612" y="350" width="12" height="18" fill="#4A4A4A"/>
  <rect x="595" y="385" width="20" height="25" fill="#654321"/>
  
  <rect x="660" y="330" width="60" height="80" fill="#FFB6C1"/>
  <polygon points="660,330 690,310 720,330" fill="#FF69B4"/>
  <rect x="675" y="355" width="10" height="15" fill="#4A4A4A"/>
  <rect x="695" y="355" width="10" height="15" fill="#4A4A4A"/>
  <rect x="680" y="385" width="20" height="25" fill="#654321"/>
  
  <rect x="740" y="325" width="70" height="85" fill="#F0E68C"/>
  <polygon points="740,325 775,305 810,325" fill="#BDB76B"/>
  <rect x="760" y="350" width="12" height="18" fill="#4A4A4A"/>
  <rect x="782" y="350" width="12" height="18" fill="#4A4A4A"/>
  <rect x="765" y="385" width="20" height="25" fill="#654321"/>
  
  <rect x="830" y="330" width="60" height="80" fill="#FFE4B5"/>
  <polygon points="830,330 860,310 890,330" fill="#DEB887"/>
  <rect x="845" y="355" width="10" height="15" fill="#4A4A4A"/>
  <rect x="865" y="355" width="10" height="15" fill="#4A4A4A"/>
  <rect x="850" y="385" width="20" height="25" fill="#654321"/>
  
  <!-- Town Hall -->
  <rect x="580" y="300" width="80" height="70" fill="#F5F5DC"/>
  <polygon points="580,300 620,280 660,300" fill="#DAA520"/>
  <rect x="600" y="320" width="12" height="18" fill="#4A4A4A"/>
  <rect x="628" y="320" width="12" height="18" fill="#4A4A4A"/>
  <rect x="610" y="350" width="20" height="20" fill="#654321"/>
  
  <!-- Clock tower -->
  <rect x="615" y="250" width="20" height="80" fill="#DEB887"/>
  <polygon points="615,250 625,230 635,250" fill="#B8860B"/>
  <circle cx="625" cy="270" r="8" fill="#F5F5DC" stroke="#8B4513" stroke-width="1"/>
  <line x1="625" y1="270" x2="625" y2="264" stroke="#8B4513" stroke-width="1"/>
  <line x1="625" y1="270" x2="629" y2="270" stroke="#8B4513" stroke-width="1"/>
  
  <!-- Bridge over Odra -->
  <rect x="300" y="345" width="600" height="15" fill="#8B7355"/>
  <rect x="350" y="340" width="8" height="25" fill="#654321"/>
  <rect x="450" y="340" width="8" height="25" fill="#654321"/>
  <rect x="550" y="340" width="8" height="25" fill="#654321"/>
  <rect x="650" y="340" width="8" height="25" fill="#654321"/>
  <rect x="750" y="340" width="8" height="25" fill="#654321"/>
  <rect x="850" y="340" width="8" height="25" fill="#654321"/>
  
  <!-- Festival crowd -->
  <circle cx="500" cy="380" r="2" fill="#FFE4C4"/>
  <rect x="498" y="382" width="4" height="8" fill="#4169E1"/>
  <rect x="499" y="390" width="2" height="4" fill="#8B4513"/>
  
  <circle cx="520" cy="385" r="2" fill="#FFE4C4"/>
  <rect x="518" y="387" width="4" height="8" fill="#DC143C"/>
  <rect x="519" y="395" width="2" height="4" fill="#8B4513"/>
  
  <circle cx="580" cy="380" r="2" fill="#FFE4C4"/>
  <rect x="578" y="382" width="4" height="8" fill="#228B22"/>
  <rect x="579" y="390" width="2" height="4" fill="#8B4513"/>
  
  <circle cx="600" cy="385" r="2" fill="#FFE4C4"/>
  <rect x="598" y="387" width="4" height="8" fill="#FFD700"/>
  <rect x="599" y="395" width="2" height="4" fill="#8B4513"/>
  
  <circle cx="650" cy="380" r="2" fill="#FFE4C4"/>
  <rect x="648" y="382" width="4" height="8" fill="#FF69B4"/>
  <rect x="649" y="390" width="2" height="4" fill="#8B4513"/>
  
  <circle cx="670" cy="385" r="2" fill="#FFE4C4"/>
  <rect x="668" y="387" width="4" height="8" fill="#9370DB"/>
  <rect x="669" y="395" width="2" height="4" fill="#8B4513"/>
  
  <circle cx="720" cy="380" r="2" fill="#FFE4C4"/>
  <rect x="718" y="382" width="4" height="8" fill="#32CD32"/>
  <rect x="719" y="390" width="2" height="4" fill="#8B4513"/>
  
  <circle cx="750" cy="385" r="2" fill="#FFE4C4"/>
  <rect x="748" y="387" width="4" height="8" fill="#FF6347"/>
  <rect x="749" y="395" width="2" height="4" fill="#8B4513"/>
  
  <!-- Music notes floating in air -->
  <ellipse cx="450" cy="250" rx="3" ry="4" fill="#000000"/>
  <line x1="453" y1="250" x2="453" y2="240" stroke="#000000" stroke-width="1"/>
  
  <ellipse cx="700" cy="270" rx="3" ry="4" fill="#000000"/>
  <line x1="703" y1="270" x2="703" y2="260" stroke="#000000" stroke-width="1"/>
  
  <ellipse cx="350" cy="260" rx="3" ry="4" fill="#000000"/>
  <line x1="353" y1="260" x2="353" y2="250" stroke="#000000" stroke-width="1"/>
  
  <ellipse cx="800" cy="280" rx="3" ry="4" fill="#000000"/>
  <line x1="803" y1="280" x2="803" y2="270" stroke="#000000" stroke-width="1"/>
  
  <!-- Trees along river -->
  <ellipse cx="100" cy="380" rx="25" ry="30" fill="#228B22"/>
  <rect x="98" y="395" width="4" height="25" fill="#8B4513"/>
  
  <ellipse cx="1100" cy="390" rx="30" ry="35" fill="#228B22"/>
  <rect x="1098" y="410" width="4" height="30" fill="#8B4513"/>
  
  <!-- Festival banners -->
  <rect x="280" y="180" width="3" height="25" fill="#654321"/>
  <polygon points="283,180 310,185 283,190" fill="#DC143C"/>
  
  <rect x="920" y="160" width="3" height="25" fill="#654321"/>
  <polygon points="923,160 950,165 923,170" fill="#4169E1"/>
  
  <!-- Title -->
  <text x="600" y="40" text-anchor="middle" font-family="serif" font-size="36" font-weight="bold" fill="#8B4513">OPOLE</text>
  <text x="600" y="70" text-anchor="middle" font-family="serif" font-size="18" fill="#A0522D">Hoofdstad van het Poolse Lied</text>
</svg>