<svg xmlns="http://www.w3.org/2000/svg" viewBox="0 0 1200 480">
  <defs>
    <linearGradient id="skyGrad" x1="0%" y1="0%" x2="0%" y2="100%">
      <stop offset="0%" style="stop-color:#87CEEB;stop-opacity:1" />
      <stop offset="100%" style="stop-color:#F0F8FF;stop-opacity:1" />
    </linearGradient>
    <linearGradient id="castleGrad" x1="0%" y1="0%" x2="0%" y2="100%">
      <stop offset="0%" style="stop-color:#CD853F;stop-opacity:1" />
      <stop offset="100%" style="stop-color:#8B4513;stop-opacity:1" />
    </linearGradient>
  </defs>
  
  <!-- Sky background -->
  <rect width="1200" height="480" fill="url(#skyGrad)"/>
  
  <!-- Rzeszów Castle -->
  <rect x="400" y="150" width="400" height="150" fill="url(#castleGrad)"/>
  <polygon points="400,150 600,120 800,150" fill="#A0522D"/>
  
  <!-- Castle towers -->
  <rect x="380" y="120" width="50" height="180" fill="#8B4513"/>
  <polygon points="380,120 405,90 430,120" fill="#654321"/>
  
  <rect x="770" y="120" width="50" height="180" fill="#8B4513"/>
  <polygon points="770,120 795,90 820,120" fill="#654321"/>
  
  <!-- Castle windows -->
  <rect x="420" y="180" width="15" height="25" fill="#4A4A4A"/>
  <rect x="450" y="180" width="15" height="25" fill="#4A4A4A"/>
  <rect x="480" y="180" width="15" height="25" fill="#4A4A4A"/>
  <rect x="520" y="180" width="15" height="25" fill="#4A4A4A"/>
  <rect x="560" y="180" width="15" height="25" fill="#4A4A4A"/>
  <rect x="600" y="180" width="15" height="25" fill="#4A4A4A"/>
  <rect x="640" y="180" width="15" height="25" fill="#4A4A4A"/>
  <rect x="680" y="180" width="15" height="25" fill="#4A4A4A"/>
  <rect x="720" y="180" width="15" height="25" fill="#4A4A4A"/>
  <rect x="750" y="180" width="15" height="25" fill="#4A4A4A"/>
  
  <!-- Castle entrance -->
  <rect x="580" y="250" width="40" height="50" fill="#654321"/>
  <polygon points="580,250 600,230 620,250" fill="#8B4513"/>
  
  <!-- Aviation Museum (PZL factory heritage) -->
  <rect x="800" y="250" width="200" height="80" fill="#E0E0E0"/>
  <polygon points="800,250 900,230 1000,250" fill="#C0C0C0"/>
  
  <!-- Aircraft silhouettes -->
  <g id="airplane1" transform="translate(850,270)">
    <rect x="0" y="0" width="40" height="6" fill="#4169E1"/>
    <rect x="10" y="-8" width="20" height="4" fill="#4169E1"/>
    <rect x="35" y="-3" width="8" height="12" fill="#4169E1"/>
  </g>
  
  <g id="airplane2" transform="translate(920,265)">
    <rect x="0" y="0" width="35" height="5" fill="#DC143C"/>
    <rect x="8" y="-6" width="18" height="3" fill="#DC143C"/>
    <rect x="30" y="-2" width="6" height="9" fill="#DC143C"/>
  </g>
  
  <!-- Modern office buildings -->
  <rect x="150" y="200" width="80" height="150" fill="#C0C0C0"/>
  <rect x="165" y="220" width="12" height="15" fill="#4A90E2"/>
  <rect x="185" y="220" width="12" height="15" fill="#4A90E2"/>
  <rect x="205" y="220" width="12" height="15" fill="#4A90E2"/>
  <rect x="165" y="250" width="12" height="15" fill="#4A90E2"/>
  <rect x="185" y="250" width="12" height="15" fill="#4A90E2"/>
  <rect x="205" y="250" width="12" height="15" fill="#4A90E2"/>
  <rect x="165" y="280" width="12" height="15" fill="#4A90E2"/>
  <rect x="185" y="280" width="12" height="15" fill="#4A90E2"/>
  <rect x="205" y="280" width="12" height="15" fill="#4A90E2"/>
  <rect x="165" y="310" width="12" height="15" fill="#4A90E2"/>
  <rect x="185" y="310" width="12" height="15" fill="#4A90E2"/>
  <rect x="205" y="310" width="12" height="15" fill="#4A90E2"/>
  
  <rect x="250" y="180" width="90" height="170" fill="#A9A9A9"/>
  <rect x="270" y="200" width="15" height="18" fill="#4A90E2"/>
  <rect x="295" y="200" width="15" height="18" fill="#4A90E2"/>
  <rect x="320" y="200" width="15" height="18" fill="#4A90E2"/>
  <rect x="270" y="235" width="15" height="18" fill="#4A90E2"/>
  <rect x="295" y="235" width="15" height="18" fill="#4A90E2"/>
  <rect x="320" y="235" width="15" height="18" fill="#4A90E2"/>
  <rect x="270" y="270" width="15" height="18" fill="#4A90E2"/>
  <rect x="295" y="270" width="15" height="18" fill="#4A90E2"/>
  <rect x="320" y="270" width="15" height="18" fill="#4A90E2"/>
  <rect x="270" y="305" width="15" height="18" fill="#4A90E2"/>
  <rect x="295" y="305" width="15" height="18" fill="#4A90E2"/>
  <rect x="320" y="305" width="15" height="18" fill="#4A90E2"/>
  
  <!-- Technology Park -->
  <rect x="1050" y="220" width="120" height="100" fill="#F0F8FF"/>
  <polygon points="1050,220 1110,200 1170,220" fill="#E0E0FF"/>
  <rect x="1070" y="245" width="15" height="20" fill="#4A90E2"/>
  <rect x="1095" y="245" width="15" height="20" fill="#4A90E2"/>
  <rect x="1120" y="245" width="15" height="20" fill="#4A90E2"/>
  <rect x="1145" y="245" width="15" height="20" fill="#4A90E2"/>
  <rect x="1082" y="280" width="20" height="25" fill="#654321"/>
  <rect x="1125" y="280" width="20" height="25" fill="#654321"/>
  
  <!-- University buildings -->
  <rect x="50" y="240" width="120" height="90" fill="#F5F5DC"/>
  <polygon points="50,240 110,220 170,240" fill="#DAA520"/>
  <rect x="70" y="265" width="15" height="20" fill="#4A4A4A"/>
  <rect x="95" y="265" width="15" height="20" fill="#4A4A4A"/>
  <rect x="120" y="265" width="15" height="20" fill="#4A4A4A"/>
  <rect x="145" y="265" width="15" height="20" fill="#4A4A4A"/>
  <rect x="100" y="300" width="25" height="30" fill="#8B4513"/>
  
  <!-- Market square -->
  <rect x="300" y="370" width="600" height="110" fill="#DEB887"/>
  
  <!-- Historic buildings around square -->
  <rect x="320" y="350" width="60" height="80" fill="#FFE4B5"/>
  <polygon points="320,350 350,330 380,350" fill="#DEB887"/>
  <rect x="335" y="375" width="10" height="15" fill="#4A4A4A"/>
  <rect x="355" y="375" width="10" height="15" fill="#4A4A4A"/>
  <rect x="340" y="405" width="20" height="25" fill="#654321"/>
  
  <rect x="400" y="345" width="70" height="85" fill="#F0E68C"/>
  <polygon points="400,345 435,325 470,345" fill="#BDB76B"/>
  <rect x="420" y="370" width="12" height="18" fill="#4A4A4A"/>
  <rect x="442" y="370" width="12" height="18" fill="#4A4A4A"/>
  <rect x="425" y="405" width="20" height="25" fill="#654321"/>
  
  <rect x="490" y="350" width="60" height="80" fill="#DDA0DD"/>
  <polygon points="490,350 520,330 550,350" fill="#8B008B"/>
  <rect x="505" y="375" width="10" height="15" fill="#4A4A4A"/>
  <rect x="525" y="375" width="10" height="15" fill="#4A4A4A"/>
  <rect x="510" y="405" width="20" height="25" fill="#654321"/>
  
  <rect x="570" y="345" width="70" height="85" fill="#98FB98"/>
  <polygon points="570,345 605,325 640,345" fill="#228B22"/>
  <rect x="590" y="370" width="12" height="18" fill="#4A4A4A"/>
  <rect x="612" y="370" width="12" height="18" fill="#4A4A4A"/>
  <rect x="595" y="405" width="20" height="25" fill="#654321"/>
  
  <rect x="660" y="350" width="60" height="80" fill="#FFB6C1"/>
  <polygon points="660,350 690,330 720,350" fill="#FF69B4"/>
  <rect x="675" y="375" width="10" height="15" fill="#4A4A4A"/>
  <rect x="695" y="375" width="10" height="15" fill="#4A4A4A"/>
  <rect x="680" y="405" width="20" height="25" fill="#654321"/>
  
  <rect x="740" y="345" width="70" height="85" fill="#F0E68C"/>
  <polygon points="740,345 775,325 810,345" fill="#BDB76B"/>
  <rect x="760" y="370" width="12" height="18" fill="#4A4A4A"/>
  <rect x="782" y="370" width="12" height="18" fill="#4A4A4A"/>
  <rect x="765" y="405" width="20" height="25" fill="#654321"/>
  
  <rect x="830" y="350" width="60" height="80" fill="#FFE4B5"/>
  <polygon points="830,350 860,330 890,350" fill="#DEB887"/>
  <rect x="845" y="375" width="10" height="15" fill="#4A4A4A"/>
  <rect x="865" y="375" width="10" height="15" fill="#4A4A4A"/>
  <rect x="850" y="405" width="20" height="25" fill="#654321"/>
  
  <!-- Church spires -->
  <rect x="1100" y="150" width="30" height="120" fill="#696969"/>
  <polygon points="1100,150 1115,120 1130,150" fill="#2F4F4F"/>
  
  <rect x="30" y="180" width="25" height="100" fill="#696969"/>
  <polygon points="30,180 42.5,150 55,180" fill="#2F4F4F"/>
  
  <!-- Wisłok River -->
  <path d="M0 380 Q200 370 400 375 Q600 380 800 375 Q1000 370 1200 375 L1200 480 L0 480 Z" fill="#4682B4" opacity="0.6"/>
  
  <!-- Bridge -->
  <rect x="400" y="370" width="400" height="12" fill="#8B7355"/>
  <rect x="450" y="365" width="8" height="22" fill="#654321"/>
  <rect x="550" y="365" width="8" height="22" fill="#654321"/>
  <rect x="650" y="365" width="8" height="22" fill="#654321"/>
  <rect x="750" y="365" width="8" height="22" fill="#654321"/>
  
  <!-- Park area -->
  <ellipse cx="100" cy="400" rx="40" ry="50" fill="#228B22"/>
  <circle cx="80" cy="380" r="4" fill="#FF69B4"/>
  <circle cx="100" cy="390" r="4" fill="#9370DB"/>
  <circle cx="120" cy="410" r="4" fill="#FFD700"/>
  <circle cx="90" cy="420" r="4" fill="#FF1493"/>
  
  <ellipse cx="1100" cy="420" rx="50" ry="60" fill="#228B22"/>
  <circle cx="1075" cy="395" r="5" fill="#32CD32"/>
  <circle cx="1100" cy="405" r="5" fill="#FF6347"/>
  <circle cx="1125" cy="425" r="5" fill="#4169E1"/>
  <circle cx="1085" cy="445" r="5" fill="#9370DB"/>
  
  <!-- People in market square -->
  <circle cx="450" cy="420" r="3" fill="#FFE4C4"/>
  <rect x="447" y="423" width="6" height="10" fill="#4169E1"/>
  <rect x="449" y="433" width="2" height="6" fill="#8B4513"/>
  
  <circle cx="600" cy="425" r="3" fill="#FFE4C4"/>
  <rect x="597" y="428" width="6" height="10" fill="#DC143C"/>
  <rect x="599" y="438" width="2" height="6" fill="#8B4513"/>
  
  <circle cx="750" cy="420" r="3" fill="#FFE4C4"/>
  <rect x="747" y="423" width="6" height="10" fill="#228B22"/>
  <rect x="749" y="433" width="2" height="6" fill="#8B4513"/>
  
  <!-- Market stalls -->
  <rect x="380" y="430" width="30" height="15" fill="#8B4513"/>
  <rect x="380" y="425" width="30" height="5" fill="#FFFFFF"/>
  
  <rect x="500" y="430" width="30" height="15" fill="#8B4513"/>
  <rect x="500" y="425" width="30" height="5" fill="#FFFFFF"/>
  
  <rect x="720" y="430" width="30" height="15" fill="#8B4513"/>
  <rect x="720" y="425" width="30" height="5" fill="#FFFFFF"/>
  
  <!-- Regional symbols -->
  <polygon points="200,100 205,95 210,100 205,105" fill="#FFD700"/>
  <polygon points="900,110 905,105 910,110 905,115" fill="#FFD700"/>
  <polygon points="1050,130 1055,125 1060,130 1055,135" fill="#FFD700"/>
  
  <!-- Title -->
  <text x="600" y="40" text-anchor="middle" font-family="serif" font-size="36" font-weight="bold" fill="#8B4513">RZESZÓW</text>
  <text x="600" y="70" text-anchor="middle" font-family="serif" font-size="18" fill="#A0522D">Poort naar het Zuidoosten</text>
</svg>