<svg xmlns="http://www.w3.org/2000/svg" viewBox="0 0 1200 480">
  <defs>
    <linearGradient id="seaGrad" x1="0%" y1="0%" x2="0%" y2="100%">
      <stop offset="0%" style="stop-color:#4682B4;stop-opacity:1" />
      <stop offset="100%" style="stop-color:#1E90FF;stop-opacity:1" />
    </linearGradient>
    <linearGradient id="beachGrad" x1="0%" y1="0%" x2="0%" y2="100%">
      <stop offset="0%" style="stop-color:#F5DEB3;stop-opacity:1" />
      <stop offset="100%" style="stop-color:#DEB887;stop-opacity:1" />
    </linearGradient>
  </defs>
  
  <!-- Baltic Sea -->
  <rect width="1200" height="300" fill="url(#seaGrad)"/>
  
  <!-- Waves -->
  <path d="M0 250 Q50 240 100 250 Q150 260 200 250 Q250 240 300 250 Q350 260 400 250 Q450 240 500 250 Q550 260 600 250 Q650 240 700 250 Q750 260 800 250 Q850 240 900 250 Q950 260 1000 250 Q1050 240 1100 250 Q1150 260 1200 250 L1200 300 L0 300 Z" fill="#FFFFFF" opacity="0.6"/>
  
  <path d="M0 270 Q30 265 60 270 Q90 275 120 270 Q150 265 180 270 Q210 275 240 270 Q270 265 300 270 Q330 275 360 270 Q390 265 420 270 Q450 275 480 270 Q510 265 540 270 Q570 275 600 270 Q630 265 660 270 Q690 275 720 270 Q750 265 780 270 Q810 275 840 270 Q870 265 900 270 Q930 275 960 270 Q990 265 1020 270 Q1050 275 1080 270 Q1110 265 1140 270 Q1170 275 1200 270 L1200 300 L0 300 Z" fill="#FFFFFF" opacity="0.4"/>
  
  <!-- Sandy beach -->
  <rect x="0" y="300" width="1200" height="180" fill="url(#beachGrad)"/>
  
  <!-- Lighthouse -->
  <rect x="900" y="150" width="30" height="150" fill="#FFFFFF"/>
  <rect x="895" y="140" width="40" height="15" fill="#DC143C"/>
  <rect x="890" y="130" width="50" height="15" fill="#FFFFFF"/>
  <rect x="895" y="120" width="40" height="15" fill="#DC143C"/>
  
  <!-- Lighthouse light -->
  <circle cx="915" cy="140" r="8" fill="#FFD700"/>
  <path d="M 907 140 L 880 130 L 880 150 Z" fill="#FFFF99" opacity="0.7"/>
  <path d="M 923 140 L 950 130 L 950 150 Z" fill="#FFFF99" opacity="0.7"/>
  
  <!-- Fortifications -->
  <rect x="400" y="220" width="300" height="80" fill="#8B7355"/>
  <polygon points="400,220 550,200 700,220" fill="#A0522D"/>
  
  <!-- Fort bastions -->
  <rect x="350" y="200" width="60" height="100" fill="#696969"/>
  <polygon points="350,200 380,180 410,200" fill="#2F4F4F"/>
  
  <rect x="720" y="200" width="60" height="100" fill="#696969"/>
  <polygon points="720,200 750,180 780,200" fill="#2F4F4F"/>
  
  <!-- Cannon embrasures -->
  <rect x="430" y="240" width="20" height="8" fill="#4A4A4A"/>
  <rect x="460" y="240" width="20" height="8" fill="#4A4A4A"/>
  <rect x="490" y="240" width="20" height="8" fill="#4A4A4A"/>
  <rect x="520" y="240" width="20" height="8" fill="#4A4A4A"/>
  <rect x="550" y="240" width="20" height="8" fill="#4A4A4A"/>
  <rect x="580" y="240" width="20" height="8" fill="#4A4A4A"/>
  <rect x="610" y="240" width="20" height="8" fill="#4A4A4A"/>
  <rect x="640" y="240" width="20" height="8" fill="#4A4A4A"/>
  <rect x="670" y="240" width="20" height="8" fill="#4A4A4A"/>
  
  <!-- Museum entrance -->
  <rect x="520" y="270" width="40" height="30" fill="#654321"/>
  <polygon points="520,270 540,255 560,270" fill="#8B4513"/>
  
  <!-- Beach promenade -->
  <rect x="0" y="320" width="1200" height="20" fill="#D3D3D3"/>
  <line x1="0" y1="330" x2="1200" y2="330" stroke="#FFFFFF" stroke-width="2" stroke-dasharray="10,5"/>
  
  <!-- Hotels and spa buildings -->
  <rect x="100" y="250" width="80" height="90" fill="#F0F8FF"/>
  <polygon points="100,250 140,230 180,250" fill="#4169E1"/>
  <rect x="115" y="275" width="12" height="18" fill="#4A90E2"/>
  <rect x="137" y="275" width="12" height="18" fill="#4A90E2"/>
  <rect x="155" y="275" width="12" height="18" fill="#4A90E2"/>
  <rect x="115" y="300" width="12" height="18" fill="#4A90E2"/>
  <rect x="137" y="300" width="12" height="18" fill="#4A90E2"/>
  <rect x="155" y="300" width="12" height="18" fill="#4A90E2"/>
  <rect x="130" y="325" width="20" height="15" fill="#654321"/>
  
  <rect x="200" y="240" width="100" height="100" fill="#F5F5DC"/>
  <polygon points="200,240 250,220 300,240" fill="#DAA520"/>
  <rect x="220" y="265" width="15" height="20" fill="#4A90E2"/>
  <rect x="245" y="265" width="15" height="20" fill="#4A90E2"/>
  <rect x="270" y="265" width="15" height="20" fill="#4A90E2"/>
  <rect x="220" y="295" width="15" height="20" fill="#4A90E2"/>
  <rect x="245" y="295" width="15" height="20" fill="#4A90E2"/>
  <rect x="270" y="295" width="15" height="20" fill="#4A90E2"/>
  <rect x="240" y="325" width="25" height="15" fill="#654321"/>
  
  <!-- Spa symbols -->
  <circle cx="150" cy="240" r="5" fill="#00CED1"/>
  <text x="150" y="244" text-anchor="middle" font-family="serif" font-size="6" fill="#FFFFFF">SPA</text>
  
  <circle cx="250" cy="230" r="5" fill="#00CED1"/>
  <text x="250" y="234" text-anchor="middle" font-family="serif" font-size="6" fill="#FFFFFF">SPA</text>
  
  <!-- Ferry terminal -->
  <rect x="1000" y="280" width="150" height="60" fill="#E0E0E0"/>
  <polygon points="1000,280 1075,260 1150,280" fill="#C0C0C0"/>
  <rect x="1020" y="300" width="20" height="25" fill="#4A90E2"/>
  <rect x="1050" y="300" width="20" height="25" fill="#4A90E2"/>
  <rect x="1080" y="300" width="20" height="25" fill="#4A90E2"/>
  <rect x="1110" y="300" width="20" height="25" fill="#4A90E2"/>
  
  <!-- Ferry -->
  <rect x="1120" y="250" width="80" height="20" fill="#FFFFFF"/>
  <rect x="1130" y="240" width="60" height="10" fill="#4169E1"/>
  <rect x="1140" y="230" width="40" height="10" fill="#DC143C"/>
  <circle cx="1135" cy="265" r="3" fill="#2F2F2F"/>
  <circle cx="1185" cy="265" r="3" fill="#2F2F2F"/>
  
  <!-- Beach cabins -->
  <rect x="50" y="350" width="25" height="35" fill="#FF6347"/>
  <polygon points="50,350 62.5,335 75,350" fill="#DC143C"/>
  <rect x="60" y="365" width="5" height="8" fill="#4A4A4A"/>
  <rect x="57" y="378" width="11" height="7" fill="#654321"/>
  
  <rect x="100" y="350" width="25" height="35" fill="#4169E1"/>
  <polygon points="100,350 112.5,335 125,350" fill="#0000CD"/>
  <rect x="110" y="365" width="5" height="8" fill="#4A4A4A"/>
  <rect x="107" y="378" width="11" height="7" fill="#654321"/>
  
  <rect x="150" y="350" width="25" height="35" fill="#32CD32"/>
  <polygon points="150,350 162.5,335 175,350" fill="#228B22"/>
  <rect x="160" y="365" width="5" height="8" fill="#4A4A4A"/>
  <rect x="157" y="378" width="11" height="7" fill="#654321"/>
  
  <rect x="200" y="350" width="25" height="35" fill="#FFD700"/>
  <polygon points="200,350 212.5,335 225,350" fill="#DAA520"/>
  <rect x="210" y="365" width="5" height="8" fill="#4A4A4A"/>
  <rect x="207" y="378" width="11" height="7" fill="#654321"/>
  
  <rect x="250" y="350" width="25" height="35" fill="#FF69B4"/>
  <polygon points="250,350 262.5,335 275,350" fill="#FF1493"/>
  <rect x="260" y="365" width="5" height="8" fill="#4A4A4A"/>
  <rect x="257" y="378" width="11" height="7" fill="#654321"/>
  
  <!-- Beach umbrellas -->
  <g id="umbrella1" transform="translate(400,380)">
    <rect x="0" y="0" width="3" height="40" fill="#8B4513"/>
    <path d="M -15 0 Q 0 -10 15 0 Q 10 -5 0 -5 Q -10 -5 -15 0" fill="#FF6347"/>
  </g>
  
  <g id="umbrella2" transform="translate(500,385)">
    <rect x="0" y="0" width="3" height="35" fill="#8B4513"/>
    <path d="M -15 0 Q 0 -10 15 0 Q 10 -5 0 -5 Q -10 -5 -15 0" fill="#4169E1"/>
  </g>
  
  <g id="umbrella3" transform="translate(600,380)">
    <rect x="0" y="0" width="3" height="40" fill="#8B4513"/>
    <path d="M -15 0 Q 0 -10 15 0 Q 10 -5 0 -5 Q -10 -5 -15 0" fill="#32CD32"/>
  </g>
  
  <g id="umbrella4" transform="translate(700,385)">
    <rect x="0" y="0" width="3" height="35" fill="#8B4513"/>
    <path d="M -15 0 Q 0 -10 15 0 Q 10 -5 0 -5 Q -10 -5 -15 0" fill="#FFD700"/>
  </g>
  
  <!-- Tourists on beach -->
  <circle cx="380" cy="400" r="3" fill="#FFE4C4"/>
  <rect x="377" y="403" width="6" height="10" fill="#FF69B4"/>
  <rect x="379" y="413" width="2" height="6" fill="#8B4513"/>
  
  <circle cx="450" cy="405" r="3" fill="#FFE4C4"/>
  <rect x="447" y="408" width="6" height="10" fill="#4169E1"/>
  <rect x="449" y="418" width="2" height="6" fill="#8B4513"/>
  
  <circle cx="550" cy="400" r="3" fill="#FFE4C4"/>
  <rect x="547" y="403" width="6" height="10" fill="#32CD32"/>
  <rect x="549" y="413" width="2" height="6" fill="#8B4513"/>
  
  <circle cx="650" cy="405" r="3" fill="#FFE4C4"/>
  <rect x="647" y="408" width="6" height="10" fill="#FFD700"/>
  <rect x="649" y="418" width="2" height="6" fill="#8B4513"/>
  
  <circle cx="750" cy="400" r="3" fill="#FFE4C4"/>
  <rect x="747" y="403" width="6" height="10" fill="#9370DB"/>
  <rect x="749" y="413" width="2" height="6" fill="#8B4513"/>
  
  <!-- Seagulls -->
  <path d="M200 150 Q205 145 210 150 Q215 145 220 150" stroke="#FFFFFF" stroke-width="2" fill="none"/>
  <path d="M500 120 Q505 115 510 120 Q515 115 520 120" stroke="#FFFFFF" stroke-width="2" fill="none"/>
  <path d="M800 140 Q805 135 810 140 Q815 135 820 140" stroke="#FFFFFF" stroke-width="2" fill="none"/>
  <path d="M1000 110 Q1005 105 1010 110 Q1015 105 1020 110" stroke="#FFFFFF" stroke-width="2" fill="none"/>
  
  <!-- Fish boats -->
  <g id="fishingBoat1" transform="translate(300,200)">
    <ellipse cx="0" cy="0" rx="25" ry="8" fill="#8B4513"/>
    <rect x="-20" y="-6" width="40" height="4" fill="#654321"/>
    <rect x="-3" y="-12" width="6" height="12" fill="#654321"/>
    <polygon points="-3,-12 3,-18 3,-12" fill="#FFFFFF"/>
  </g>
  
  <g id="fishingBoat2" transform="translate(150,180)">
    <ellipse cx="0" cy="0" rx="20" ry="6" fill="#8B4513"/>
    <rect x="-15" y="-4" width="30" height="3" fill="#654321"/>
    <rect x="-2" y="-10" width="4" height="10" fill="#654321"/>
    <polygon points="-2,-10 2,-15 2,-10" fill="#FFFFFF"/>
  </g>
  
  <!-- Spa therapy symbols -->
  <circle cx="130" cy="360" r="4" fill="#00CED1"/>
  <circle cx="270" cy="365" r="4" fill="#00CED1"/>
  
  <!-- Trees behind beach -->
  <ellipse cx="50" cy="340" rx="20" ry="25" fill="#228B22"/>
  <rect x="48" y="355" width="4" height="20" fill="#8B4513"/>
  
  <ellipse cx="1150" cy="350" rx="25" ry="30" fill="#228B22"/>
  <rect x="1148" y="370" width="4" height="25" fill="#8B4513"/>
  
  <!-- Sun in sky -->
  <circle cx="1100" cy="80" r="25" fill="#FFD700"/>
  <line x1="1075" y1="80" x2="1065" y2="80" stroke="#FFD700" stroke-width="3"/>
  <line x1="1125" y1="80" x2="1135" y2="80" stroke="#FFD700" stroke-width="3"/>
  <line x1="1100" y1="55" x2="1100" y2="45" stroke="#FFD700" stroke-width="3"/>
  <line x1="1100" y1="105" x2="1100" y2="115" stroke="#FFD700" stroke-width="3"/>
  <line x1="1082" y1="62" x2="1075" y2="55" stroke="#FFD700" stroke-width="3"/>
  <line x1="1118" y1="98" x2="1125" y2="105" stroke="#FFD700" stroke-width="3"/>
  <line x1="1118" y1="62" x2="1125" y2="55" stroke="#FFD700" stroke-width="3"/>
  <line x1="1082" y1="98" x2="1075" y2="105" stroke="#FFD700" stroke-width="3"/>
  
  <!-- Title -->
  <text x="600" y="40" text-anchor="middle" font-family="serif" font-size="36" font-weight="bold" fill="#4169E1">ŚWINOUJŚCIE</text>
  <text x="600" y="70" text-anchor="middle" font-family="serif" font-size="18" fill="#1E90FF">Kuuroord aan de Oostzee</text>
</svg>