<svg xmlns="http://www.w3.org/2000/svg" viewBox="0 0 1200 480">
  <defs>
    <linearGradient id="skyGrad" x1="0%" y1="0%" x2="0%" y2="100%">
      <stop offset="0%" style="stop-color:#87CEEB;stop-opacity:1" />
      <stop offset="100%" style="stop-color:#F0F8FF;stop-opacity:1" />
    </linearGradient>
    <linearGradient id="waterfallGrad" x1="0%" y1="0%" x2="0%" y2="100%">
      <stop offset="0%" style="stop-color:#FFFFFF;stop-opacity:1" />
      <stop offset="100%" style="stop-color:#87CEEB;stop-opacity:1" />
    </linearGradient>
  </defs>
  
  <!-- Sky background -->
  <rect width="1200" height="480" fill="url(#skyGrad)"/>
  
  <!-- Mountain peaks -->
  <polygon points="0,100 200,80 400,90 600,75 800,85 1000,95 1200,105 1200,480 0,480" fill="#8FBC8F"/>
  <polygon points="100,120 300,100 500,110 700,105 900,115 1100,125 1200,120 1200,200 0,200" fill="#228B22" opacity="0.8"/>
  
  <!-- Szklarki Waterfall -->
  <rect x="300" y="120" width="20" height="100" fill="url(#waterfallGrad)"/>
  <rect x="305" y="110" width="10" height="10" fill="#87CEEB"/>
  <!-- Water cascade effect -->
  <path d="M305 120 Q310 130 308 140 Q312 150 306 160 Q314 170 307 180 Q315 190 309 200 Q313 210 310 220" stroke="#FFFFFF" stroke-width="3" fill="none"/>
  
  <!-- Pool at base of waterfall -->
  <ellipse cx="310" cy="230" rx="25" ry="10" fill="#4682B4"/>
  
  <!-- Glass works heritage -->
  <rect x="500" y="250" width="200" height="80" fill="#E0E0E0"/>
  <polygon points="500,250 600,230 700,250" fill="#C0C0C0"/>
  
  <!-- Glass factory chimneys -->
  <rect x="520" y="200" width="15" height="100" fill="#8B4513"/>
  <rect x="570" y="190" width="15" height="110" fill="#8B4513"/>
  <rect x="620" y="195" width="15" height="105" fill="#8B4513"/>
  <rect x="670" y="200" width="15" height="100" fill="#8B4513"/>
  
  <!-- Furnaces -->
  <rect x="525" y="270" width="20" height="25" fill="#FF6347"/>
  <rect x="575" y="270" width="20" height="25" fill="#FF6347"/>
  <rect x="625" y="270" width="20" height="25" fill="#FF6347"/>
  <rect x="675" y="270" width="20" height="25" fill="#FF6347"/>
  
  <!-- Ski jump (Szklarska Poreba has famous ski jumping) -->
  <path d="M800 150 Q850 180 900 220 Q950 260 1000 300" stroke="#FFFFFF" stroke-width="12" fill="none"/>
  
  <!-- Ski jump tower -->
  <rect x="795" y="120" width="10" height="60" fill="#696969"/>
  <rect x="790" y="115" width="20" height="8" fill="#2F2F2F"/>
  
  <!-- Ski jumper -->
  <g id="skijumper" transform="translate(920,240)">
    <circle cx="0" cy="0" r="3" fill="#FFE4C4"/>
    <rect x="-3" y="3" width="6" height="12" fill="#DC143C"/>
    <rect x="-1" y="15" width="2" height="10" fill="#654321"/>
    <!-- Skis in air -->
    <line x1="-8" y1="25" x2="-3" y2="30" stroke="#FFD700" stroke-width="2"/>
    <line x1="3" y1="25" x2="8" y2="30" stroke="#FFD700" stroke-width="2"/>
    <!-- Arms spread for balance -->
    <line x1="-8" y1="8" x2="-12" y2="5" stroke="#FFE4C4" stroke-width="2"/>
    <line x1="8" y1="8" x2="12" y2="5" stroke="#FFE4C4" stroke-width="2"/>
  </g>
  
  <!-- Mountain hotels -->
  <rect x="100" y="280" width="120" height="70" fill="#8B4513"/>
  <polygon points="100,280 160,260 220,280" fill="#654321"/>
  <rect x="120" y="305" width="15" height="20" fill="#FFD700"/>
  <rect x="145" y="305" width="15" height="20" fill="#FFD700"/>
  <rect x="170" y="305" width="15" height="20" fill="#FFD700"/>
  <rect x="195" y="305" width="15" height="20" fill="#FFD700"/>
  <rect x="150" y="335" width="25" height="15" fill="#654321"/>
  
  <rect x="750" y="300" width="100" height="60" fill="#D2B48C"/>
  <polygon points="750,300 800,285 850,300" fill="#8B7355"/>
  <rect x="770" y="320" width="12" height="18" fill="#FFD700"/>
  <rect x="792" y="320" width="12" height="18" fill="#FFD700"/>
  <rect x="814" y="320" width="12" height="18" fill="#FFD700"/>
  <rect x="785" y="345" width="20" height="15" fill="#654321"/>
  
  <!-- Hiking trails -->
  <path d="M200 400 Q300 380 400 410 Q500 390 600 420" stroke="#8B4513" stroke-width="3" fill="none" stroke-dasharray="5,3"/>
  <path d="M700 430 Q800 410 900 440 Q1000 420 1100 450" stroke="#8B4513" stroke-width="3" fill="none" stroke-dasharray="5,3"/>
  
  <!-- Hikers with backpacks -->
  <circle cx="350" cy="395" r="3" fill="#FFE4C4"/>
  <rect x="347" y="398" width="6" height="12" fill="#228B22"/>
  <rect x="349" y="410" width="2" height="8" fill="#8B4513"/>
  <rect x="345" y="395" width="4" height="6" fill="#654321"/>
  <line x1="354" y1="405" x2="358" y2="395" stroke="#8B4513" stroke-width="2"/>
  
  <circle cx="850" cy="425" r="3" fill="#FFE4C4"/>
  <rect x="847" y="428" width="6" height="12" fill="#4169E1"/>
  <rect x="849" y="440" width="2" height="8" fill="#8B4513"/>
  <rect x="845" y="425" width="4" height="6" fill="#654321"/>
  <line x1="854" y1="435" x2="858" y2="425" stroke="#8B4513" stroke-width="2"/>
  
  <!-- Mountain bikers -->
  <g id="biker" transform="translate(550,420)">
    <circle cx="0" cy="0" r="3" fill="#FFE4C4"/>
    <rect x="-3" y="3" width="6" height="10" fill="#FF6347"/>
    <rect x="-1" y="13" width="2" height="6" fill="#8B4513"/>
    <!-- Bike wheels -->
    <circle cx="-8" cy="15" r="4" fill="#2F2F2F" stroke="#696969" stroke-width="1"/>
    <circle cx="8" cy="15" r="4" fill="#2F2F2F" stroke="#696969" stroke-width="1"/>
    <!-- Bike frame -->
    <line x1="-4" y1="15" x2="4" y2="15" stroke="#DC143C" stroke-width="2"/>
    <line x1="0" y1="10" x2="0" y2="15" stroke="#DC143C" stroke-width="2"/>
  </g>
  
  <!-- Spa and wellness center -->
  <rect x="950" y="350" width="120" height="60" fill="#F0F8FF"/>
  <polygon points="950,350 1010,335 1070,350" fill="#4169E1"/>
  <rect x="970" y="370" width="15" height="20" fill="#4A90E2"/>
  <rect x="995" y="370" width="15" height="20" fill="#4A90E2"/>
  <rect x="1020" y="370" width="15" height="20" fill="#4A90E2"/>
  <rect x="1045" y="370" width="15" height="20" fill="#4A90E2"/>
  <rect x="1000" y="395" width="25" height="15" fill="#654321"/>
  
  <!-- Spa symbol -->
  <circle cx="1010" cy="345" r="6" fill="#00CED1"/>
  <text x="1010" y="349" text-anchor="middle" font-family="serif" font-size="7" fill="#FFFFFF">SPA</text>
  
  <!-- Glass museum -->
  <rect x="400" y="350" width="80" height="50" fill="#F5F5DC"/>
  <polygon points="400,350 440,335 480,350" fill="#DAA520"/>
  <rect x="415" y="370" width="12" height="15" fill="#4A4A4A"/>
  <rect x="435" y="370" width="12" height="15" fill="#4A4A4A"/>
  <rect x="455" y="370" width="12" height="15" fill="#4A4A4A"/>
  <rect x="430" y="385" width="20" height="15" fill="#654321"/>
  
  <!-- Glass products display -->
  <circle cx="425" cy="360" r="2" fill="#87CEEB"/>
  <circle cx="440" cy="360" r="2" fill="#87CEEB"/>
  <circle cx="455" cy="360" r="2" fill="#87CEEB"/>
  
  <!-- Waterfall viewing platform -->
  <rect x="280" y="240" width="60" height="15" fill="#8B7355"/>
  <rect x="275" y="235" width="6" height="25" fill="#654321"/>
  <rect x="345" y="235" width="6" height="25" fill="#654321"/>
  
  <!-- Tourists viewing waterfall -->
  <circle cx="300" cy="250" r="2" fill="#FFE4C4"/>
  <rect x="298" y="252" width="4" height="8" fill="#32CD32"/>
  <rect x="299" y="260" width="2" height="5" fill="#8B4513"/>
  
  <circle cx="320" cy="250" r="2" fill="#FFE4C4"/>
  <rect x="318" y="252" width="4" height="8" fill="#9370DB"/>
  <rect x="319" y="260" width="2" height="5" fill="#8B4513"/>
  
  <!-- Forest areas -->
  <ellipse cx="50" cy="350" rx="30" ry="40" fill="#228B22"/>
  <ellipse cx="20" cy="330" rx="20" ry="30" fill="#228B22"/>
  <ellipse cx="80" cy="340" rx="25" ry="35" fill="#228B22"/>
  
  <ellipse cx="1150" cy="380" rx="35" ry="45" fill="#228B22"/>
  <ellipse cx="1120" cy="360" rx="25" ry="35" fill="#228B22"/>
  <ellipse cx="1180" cy="400" rx="20" ry="30" fill="#228B22"/>
  
  <!-- Crystal workshops -->
  <rect x="600" y="380" width="60" height="40" fill="#E6E6FA"/>
  <polygon points="600,380 630,365 660,380" fill="#9370DB"/>
  <rect x="615" y="395" width="8" height="12" fill="#4A4A4A"/>
  <rect x="635" y="395" width="8" height="12" fill="#4A4A4A"/>
  <rect x="622" y="407" width="15" height="13" fill="#654321"/>
  
  <!-- Crystal symbols -->
  <polygon points="620,375 625,370 630,375 625,380" fill="#87CEEB"/>
  <polygon points="635,375 640,370 645,375 640,380" fill="#87CEEB"/>
  
  <!-- Local wildlife -->
  <ellipse cx="200" cy="300" rx="3" ry="1.5" fill="#8B4513"/>
  <circle cx="198" cy="299" r="0.8" fill="#8B4513"/>
  
  <ellipse cx="900" cy="320" rx="2.5" ry="1.2" fill="#696969"/>
  <circle cx="898" cy="319" r="0.6" fill="#696969"/>
  
  <!-- Mountain flowers -->
  <circle cx="120" cy="380" r="2" fill="#FF69B4"/>
  <circle cx="280" cy="370" r="2" fill="#9370DB"/>
  <circle cx="520" cy="360" r="2" fill="#FFD700"/>
  <circle cx="780" cy="390" r="2" fill="#32CD32"/>
  <circle cx="980" cy="430" r="2" fill="#FF6347"/>
  
  <!-- Tourist information signs -->
  <rect x="250" y="380" width="3" height="20" fill="#8B4513"/>
  <rect x="253" y="380" width="30" height="15" fill="#4169E1"/>
  <text x="268" y="390" text-anchor="middle" font-family="serif" font-size="6" fill="#FFFFFF">WODOSPAD</text>
  
  <rect x="850" y="280" width="3" height="20" fill="#8B4513"/>
  <rect x="853" y="280" width="30" height="15" fill="#DC143C"/>
  <text x="868" y="290" text-anchor="middle" font-family="serif" font-size="6" fill="#FFFFFF">SKOKI</text>
  
  <!-- Title -->
  <text x="600" y="40" text-anchor="middle" font-family="serif" font-size="36" font-weight="bold" fill="#4169E1">SZKLARSKA PORĘBA</text>
  <text x="600" y="70" text-anchor="middle" font-family="serif" font-size="18" fill="#228B22">Glasstad met Waterval</text>
</svg>