<svg width="400" height="300" xmlns="http://www.w3.org/2000/svg" viewBox="0 0 400 300">
  <defs>
    <linearGradient id="polandGrad" x1="0%" y1="0%" x2="0%" y2="100%">
      <stop offset="0%" style="stop-color:#FFFFFF;stop-opacity:1" />
      <stop offset="50%" style="stop-color:#FFFFFF;stop-opacity:1" />
      <stop offset="50%" style="stop-color:#DC143C;stop-opacity:1" />
      <stop offset="100%" style="stop-color:#DC143C;stop-opacity:1" />
    </linearGradient>
    <linearGradient id="skyGrad" x1="0%" y1="0%" x2="0%" y2="100%">
      <stop offset="0%" style="stop-color:#87CEEB;stop-opacity:1" />
      <stop offset="100%" style="stop-color:#E0F6FF;stop-opacity:1" />
    </linearGradient>
  </defs>
  
  <!-- Background -->
  <rect width="400" height="300" fill="url(#skyGrad)"/>
  
  <!-- Poland map outline (simplified) -->
  <path d="M 120 120 Q 150 100 200 110 Q 250 105 280 120 Q 300 140 290 170 Q 280 200 250 190 Q 200 195 150 185 Q 120 160 120 120 Z" fill="url(#polandGrad)" stroke="#2F4F4F" stroke-width="2"/>
  
  <!-- Eagle silhouette (Polish symbol) -->
  <path d="M 200 140 Q 190 135 185 145 Q 190 155 200 150 Q 210 155 215 145 Q 210 135 200 140 Z" fill="#FFD700"/>
  <circle cx="195" cy="142" r="1" fill="#2F4F4F"/>
  <path d="M 200 150 L 200 160" stroke="#FFD700" stroke-width="2"/>
  <path d="M 195 155 L 190 165" stroke="#FFD700" stroke-width="1"/>
  <path d="M 205 155 L 210 165" stroke="#FFD700" stroke-width="1"/>
  
  <!-- Decorative elements -->
  <circle cx="100" cy="80" r="15" fill="#FFFFFF" opacity="0.8"/>
  <circle cx="320" cy="90" r="12" fill="#FFFFFF" opacity="0.8"/>
  <circle cx="80" cy="220" r="10" fill="#FFFFFF" opacity="0.6"/>
  <circle cx="340" cy="240" r="8" fill="#FFFFFF" opacity="0.6"/>
  
  <!-- Polish architectural elements -->
  <rect x="50" y="200" width="15" height="30" fill="#8B4513"/>
  <polygon points="50,200 57.5,190 65,200" fill="#8B0000"/>
  
  <rect x="330" y="205" width="12" height="25" fill="#8B4513"/>
  <polygon points="330,205 336,195 342,205" fill="#8B0000"/>
  
  <!-- Text placeholder -->
  <text x="200" y="260" text-anchor="middle" font-family="Arial, sans-serif" font-size="18" font-weight="bold" fill="#2F4F4F">Ontdek Polen</text>
  <text x="200" y="280" text-anchor="middle" font-family="Arial, sans-serif" font-size="14" fill="#2F4F4F">Poolse Ervaring</text>
</svg>