<svg width="400" height="300" xmlns="http://www.w3.org/2000/svg" viewBox="0 0 400 300">
  <defs>
    <linearGradient id="bakeryGrad" x1="0%" y1="0%" x2="0%" y2="100%">
      <stop offset="0%" style="stop-color:#F5DEB3;stop-opacity:1" />
      <stop offset="100%" style="stop-color:#DEB887;stop-opacity:1" />
    </linearGradient>
  </defs>
  
  <!-- Bakery interior -->
  <rect width="400" height="300" fill="url(#bakeryGrad)"/>
  
  <!-- Bakery counter -->
  <rect x="50" y="200" width="300" height="50" fill="#8B4513"/>
  <rect x="50" y="190" width="300" height="15" fill="#CD853F"/>
  
  <!-- Oven -->
  <rect x="280" y="120" width="80" height="80" fill="#2F4F4F"/>
  <rect x="290" y="140" width="20" height="20" fill="#FF4500"/>
  <rect x="320" y="140" width="20" height="20" fill="#FF4500"/>
  <rect x="290" y="170" width="20" height="20" fill="#FF4500"/>
  <rect x="320" y="170" width="20" height="20" fill="#FF4500"/>
  
  <!-- Gingerbread cookies on counter -->
  <!-- Gingerbread man 1 -->
  <ellipse cx="120" cy="180" rx="8" ry="12" fill="#8B4513"/>
  <circle cx="120" cy="170" r="5" fill="#8B4513"/>
  <ellipse cx="110" cy="175" rx="4" ry="2" fill="#8B4513"/>
  <ellipse cx="130" cy="175" rx="4" ry="2" fill="#8B4513"/>
  <ellipse cx="115" cy="190" rx="2" ry="4" fill="#8B4513"/>
  <ellipse cx="125" cy="190" rx="2" ry="4" fill="#8B4513"/>
  <circle cx="118" cy="168" r="1" fill="#FFFFFF"/>
  <circle cx="122" cy="168" r="1" fill="#FFFFFF"/>
  <ellipse cx="120" cy="172" rx="2" ry="1" fill="#FFFFFF"/>
  
  <!-- Gingerbread man 2 -->
  <ellipse cx="180" cy="180" rx="8" ry="12" fill="#8B4513"/>
  <circle cx="180" cy="170" r="5" fill="#8B4513"/>
  <ellipse cx="170" cy="175" rx="4" ry="2" fill="#8B4513"/>
  <ellipse cx="190" cy="175" rx="4" ry="2" fill="#8B4513"/>
  <ellipse cx="175" cy="190" rx="2" ry="4" fill="#8B4513"/>
  <ellipse cx="185" cy="190" rx="2" ry="4" fill="#8B4513"/>
  <circle cx="178" cy="168" r="1" fill="#FFFFFF"/>
  <circle cx="182" cy="168" r="1" fill="#FFFFFF"/>
  <ellipse cx="180" cy="172" rx="2" ry="1" fill="#FFFFFF"/>
  
  <!-- Gingerbread house -->
  <rect x="240" y="160" width="30" height="25" fill="#8B4513"/>
  <polygon points="240,160 255,145 270,160" fill="#654321"/>
  <rect x="248" y="170" width="6" height="8" fill="#2F4F4F"/>
  <rect x="258" y="165" width="4" height="4" fill="#FFD700"/>
  
  <!-- Baker -->
  <circle cx="80" cy="140" r="8" fill="#FFDBAC"/>
  <rect x="75" y="145" width="10" height="15" fill="#FFFFFF"/>
  <rect x="70" y="135" width="20" height="8" fill="#FFFFFF"/>
  <circle cx="78" cy="138" r="1" fill="#000"/>
  <circle cx="82" cy="138" r="1" fill="#000"/>
  
  <!-- Rolling pin -->
  <rect x="65" y="155" width="20" height="3" fill="#CD853F"/>
  <circle cx="63" cy="156.5" r="2" fill="#8B4513"/>
  <circle cx="87" cy="156.5" r="2" fill="#8B4513"/>
  
  <!-- Flour bags -->
  <rect x="20" y="180" width="20" height="25" fill="#F5F5F5"/>
  <text x="30" y="195" text-anchor="middle" font-family="Arial, sans-serif" font-size="8" fill="#2F4F4F">FLOUR</text>
  
  <!-- Medieval window -->
  <rect x="150" y="80" width="40" height="60" fill="#4169E1" opacity="0.3"/>
  <rect x="168" y="80" width="4" height="60" fill="#8B4513"/>
  <rect x="150" y="108" width="40" height="4" fill="#8B4513"/>
  
  <!-- Text -->
  <text x="200" y="280" text-anchor="middle" font-family="Arial, sans-serif" font-size="16" font-weight="bold" fill="#2F4F4F">Peperkoek Museum</text>
  <text x="200" y="295" text-anchor="middle" font-family="Arial, sans-serif" font-size="12" fill="#2F4F4F">Toruń</text>
</svg>