<svg width="400" height="300" xmlns="http://www.w3.org/2000/svg" viewBox="0 0 400 300">
  <defs>
    <linearGradient id="skyGrad" x1="0%" y1="0%" x2="0%" y2="100%">
      <stop offset="0%" style="stop-color:#87CEEB;stop-opacity:1" />
      <stop offset="100%" style="stop-color:#E0F6FF;stop-opacity:1" />
    </linearGradient>
  </defs>
  
  <!-- Sky -->
  <rect width="400" height="200" fill="url(#skyGrad)"/>
  
  <!-- Ground -->
  <rect x="0" y="200" width="400" height="100" fill="#8FBC8F"/>
  
  <!-- Buildings -->
  <rect x="50" y="120" width="80" height="80" fill="#CD853F" stroke="#8B4513" stroke-width="2"/>
  <rect x="150" y="100" width="100" height="100" fill="#F4A460" stroke="#8B4513" stroke-width="2"/>
  <rect x="270" y="110" width="80" height="90" fill="#DEB887" stroke="#8B4513" stroke-width="2"/>
  
  <!-- Roofs -->
  <polygon points="40,120 90,80 140,120" fill="#8B4513"/>
  <polygon points="140,100 200,60 260,100" fill="#8B4513"/>
  <polygon points="260,110 310,70 360,110" fill="#8B4513"/>
  
  <!-- Dwarf figure -->
  <circle cx="200" cy="180" r="8" fill="#FFDBAC"/>
  <rect x="195" y="185" width="10" height="15" fill="#FF6347"/>
  <polygon points="190,160 200,140 210,160" fill="#8B0000"/>
  <circle cx="197" cy="178" r="1" fill="#000"/>
  <circle cx="203" cy="178" r="1" fill="#000"/>
  
  <!-- Text -->
  <text x="200" y="250" text-anchor="middle" font-family="Arial, sans-serif" font-size="18" font-weight="bold" fill="#2F4F4F">Dwergentocht</text>
  <text x="200" y="270" text-anchor="middle" font-family="Arial, sans-serif" font-size="14" fill="#2F4F4F">Wrocław</text>
</svg>