<svg xmlns="http://www.w3.org/2000/svg" viewBox="0 0 64 64" width="64" height="64">
  <defs>
    <linearGradient id="courtGrad" x1="0%" y1="0%" x2="0%" y2="100%">
      <stop offset="0%" style="stop-color:#F5DEB3;stop-opacity:1" />
      <stop offset="100%" style="stop-color:#DEB887;stop-opacity:1" />
    </linearGradient>
  </defs>
  <!-- Sky -->
  <rect x="0" y="0" width="64" height="20" fill="#87CEEB"/>
  <!-- Artus Court main building -->
  <rect x="15" y="20" width="34" height="30" fill="url(#courtGrad)" stroke="#CD853F" stroke-width="1"/>
  <!-- Gothic roof -->
  <polygon points="13,20 32,8 51,20" fill="#8B4513"/>
  <!-- Central tower -->
  <rect x="28" y="12" width="8" height="18" fill="url(#courtGrad)" stroke="#CD853F" stroke-width="1"/>
  <polygon points="26,12 32,5 38,12" fill="#654321"/>
  <!-- Gothic windows -->
  <path d="M20,25 Q22,22 24,25 L24,32 L20,32 Z" fill="#4169E1"/>
  <path d="M26,25 Q28,22 30,25 L30,32 L26,32 Z" fill="#4169E1"/>
  <path d="M34,25 Q36,22 38,25 L38,32 L34,32 Z" fill="#4169E1"/>
  <path d="M40,25 Q42,22 44,25 L44,32 L40,32 Z" fill="#4169E1"/>
  <!-- Central rose window -->
  <circle cx="32" cy="28" r="3" fill="#8A2BE2"/>
  <circle cx="32" cy="28" r="2" fill="#4169E1"/>
  <circle cx="32" cy="28" r="1" fill="#FFD700"/>
  <!-- Entrance portal -->
  <path d="M28,40 Q32,37 36,40 L36,50 L28,50 Z" fill="#2E2E2E"/>
  <path d="M29,40 Q32,38 35,40 L35,42 L29,42 Z" fill="#8B4513"/>
  <!-- Decorative elements -->
  <rect x="18" y="35" width="2" height="4" fill="#FFD700"/>
  <rect x="44" y="35" width="2" height="4" fill="#FFD700"/>
  <!-- Guild coat of arms -->
  <rect x="30" y="16" width="4" height="4" fill="#DC143C"/>
  <polygon points="30,16 32,14 34,16" fill="#FFD700"/>
  <!-- Ground -->
  <rect x="0" y="50" width="64" height="14" fill="#D2B48C"/>
  <!-- Side buildings -->
  <rect x="5" y="30" width="8" height="20" fill="#DEB887" stroke="#CD853F" stroke-width="1"/>
  <rect x="51" y="30" width="8" height="20" fill="#DEB887" stroke="#CD853F" stroke-width="1"/>
  <!-- Side building roofs -->
  <polygon points="3,30 9,25 15,30" fill="#8B4513"/>
  <polygon points="49,30 55,25 61,30" fill="#8B4513"/>
  <!-- Side windows -->
  <rect x="7" y="35" width="2" height="3" fill="#4169E1"/>
  <rect x="10" y="35" width="2" height="3" fill="#4169E1"/>
  <rect x="53" y="35" width="2" height="3" fill="#4169E1"/>
  <rect x="56" y="35" width="2" height="3" fill="#4169E1"/>
  <!-- Merchant guild symbols -->
  <circle cx="9" cy="32" r="1" fill="#FFD700"/>
  <circle cx="55" cy="32" r="1" fill="#FFD700"/>
  <!-- Steps to entrance -->
  <rect x="26" y="48" width="12" height="2" fill="#A9A9A9"/>
  <rect x="28" y="50" width="8" height="1" fill="#A9A9A9"/>
  <!-- Street lamps -->
  <rect x="12" y="45" width="0.5" height="5" fill="#2F4F4F"/>
  <circle cx="12.25" cy="44" r="1" fill="#FFD700"/>
  <rect x="52" y="45" width="0.5" height="5" fill="#2F4F4F"/>
  <circle cx="52.25" cy="44" r="1" fill="#FFD700"/>
</svg>