<svg xmlns="http://www.w3.org/2000/svg" viewBox="0 0 64 64" width="64" height="64">
  <defs>
    <linearGradient id="skyGrad" x1="0%" y1="0%" x2="0%" y2="100%">
      <stop offset="0%" style="stop-color:#87CEEB;stop-opacity:1" />
      <stop offset="100%" style="stop-color:#E0F6FF;stop-opacity:1" />
    </linearGradient>
  </defs>
  <!-- Sky -->
  <rect x="0" y="0" width="64" height="40" fill="url(#skyGrad)"/>
  <!-- Ground -->
  <rect x="0" y="40" width="64" height="24" fill="#8FBC8F"/>
  <!-- Trees in background -->
  <rect x="5" y="25" width="2" height="15" fill="#8B4513"/>
  <circle cx="6" cy="25" r="4" fill="#228B22"/>
  <rect x="12" y="22" width="2.5" height="18" fill="#654321"/>
  <circle cx="13.25" cy="22" r="5" fill="#32CD32"/>
  <rect x="48" y="28" width="2" height="12" fill="#8B4513"/>
  <circle cx="49" cy="28" r="3.5" fill="#228B22"/>
  <rect x="56" y="24" width="2.5" height="16" fill="#654321"/>
  <circle cx="57.25" cy="24" r="4.5" fill="#32CD32"/>
  <!-- Binoculars (person bird watching) -->
  <ellipse cx="32" cy="45" rx="1.5" ry="3" fill="#8B4513"/>
  <circle cx="30.5" cy="43" r="1.5" fill="#2F4F4F"/>
  <circle cx="33.5" cy="43" r="1.5" fill="#2F4F4F"/>
  <circle cx="30.5" cy="43" r="1" fill="#4169E1"/>
  <circle cx="33.5" cy="43" r="1" fill="#4169E1"/>
  <rect x="31.7" y="42.5" width="0.6" height="1" fill="#696969"/>
  <!-- Hat -->
  <ellipse cx="32" cy="40" rx="2" ry="1" fill="#8B4513"/>
  <ellipse cx="32" cy="39" rx="1.5" ry="2" fill="#D2B48C"/>
  <!-- Flying birds -->
  <path d="M15,15 Q17,13 19,15 Q17,17 15,15" fill="#2F4F4F"/>
  <path d="M22,12 Q24,10 26,12 Q24,14 22,12" fill="#2F4F4F"/>
  <path d="M45,18 Q47,16 49,18 Q47,20 45,18" fill="#2F4F4F"/>
  <path d="M38,8 Q40,6 42,8 Q40,10 38,8" fill="#2F4F4F"/>
  <!-- Perched birds -->
  <ellipse cx="8" cy="22" rx="1" ry="0.8" fill="#DC143C"/>
  <circle cx="7.5" cy="21.5" r="0.3" fill="#2F4F4F"/>
  <polygon points="8.8,22 9.5,21.5 9.2,22.5" fill="#FFA500"/>
  <ellipse cx="52" cy="26" rx="1.2" ry="1" fill="#4169E1"/>
  <circle cx="51.4" cy="25.4" r="0.3" fill="#2F4F4F"/>
  <polygon points="52.8,26 53.5,25.5 53.2,26.5" fill="#FFA500"/>
  <!-- Bird on ground -->
  <ellipse cx="25" cy="55" rx="1.5" ry="1" fill="#8B4513"/>
  <circle cx="24.2" cy="54.5" r="0.4" fill="#2F4F4F"/>
  <polygon points="25.8,55 26.5,54.5 26.2,55.5" fill="#FFD700"/>
  <rect x="24.8" y="56" width="0.3" height="2" fill="#FFA500"/>
  <rect x="25.2" y="56" width="0.3" height="2" fill="#FFA500"/>
  <!-- Nest in tree -->
  <ellipse cx="13" cy="20" rx="1.5" ry="0.8" fill="#8B4513"/>
  <circle cx="13" cy="19.5" r="0.3" fill="#87CEEB"/>
  <!-- Reeds/tall grass -->
  <rect x="40" y="45" width="0.5" height="8" fill="#8B8B00"/>
  <rect x="41" y="47" width="0.5" height="6" fill="#8B8B00"/>
  <rect x="42" y="46" width="0.5" height="7" fill="#8B8B00"/>
  <rect x="18" y="48" width="0.5" height="5" fill="#8B8B00"/>
  <rect x="19" y="46" width="0.5" height="7" fill="#8B8B00"/>
  <!-- Small pond -->
  <ellipse cx="45" cy="58" rx="8" ry="3" fill="#4682B4"/>
  <ellipse cx="43" cy="57" rx="2" ry="0.5" fill="#87CEEB" opacity="0.7"/>
  <!-- Water bird -->
  <ellipse cx="47" cy="57" rx="1" ry="0.6" fill="#FFFFFF"/>
  <circle cx="46.5" cy="56.8" r="0.25" fill="#2F4F4F"/>
  <polygon points="47.5,57 48,56.7 47.8,57.3" fill="#FFA500"/>
  <!-- Dragonfly -->
  <ellipse cx="35" cy="50" rx="0.3" ry="1" fill="#4169E1"/>
  <line x1="34.5" y1="50" x2="34" y2="49.5" stroke="#87CEEB" stroke-width="0.3"/>
  <line x1="35.5" y1="50" x2="36" y2="49.5" stroke="#87CEEB" stroke-width="0.3"/>
  <!-- Footpath -->
  <path d="M28,64 Q32,55 36,64" fill="none" stroke="#D2B48C" stroke-width="2"/>
</svg>