<svg xmlns="http://www.w3.org/2000/svg" viewBox="0 0 64 64" width="64" height="64">
  <defs>
    <linearGradient id="brickGrad" x1="0%" y1="0%" x2="0%" y2="100%">
      <stop offset="0%" style="stop-color:#CD5C5C;stop-opacity:1" />
      <stop offset="100%" style="stop-color:#A0522D;stop-opacity:1" />
    </linearGradient>
  </defs>
  <!-- Sky -->
  <rect x="0" y="0" width="64" height="20" fill="#87CEEB"/>
  <!-- Main church body (brick Gothic) -->
  <rect x="18" y="25" width="28" height="30" fill="url(#brickGrad)" stroke="#8B4513" stroke-width="1"/>
  <!-- Gothic roof -->
  <polygon points="16,25 32,10 48,25" fill="#654321"/>
  <!-- Main tower -->
  <rect x="26" y="12" width="12" height="25" fill="url(#brickGrad)" stroke="#8B4513" stroke-width="1"/>
  <polygon points="24,12 32,3 40,12" fill="#654321"/>
  <!-- Side towers -->
  <rect x="15" y="20" width="6" height="20" fill="url(#brickGrad)" stroke="#8B4513" stroke-width="1"/>
  <rect x="43" y="20" width="6" height="20" fill="url(#brickGrad)" stroke="#8B4513" stroke-width="1"/>
  <polygon points="14,20 18,15 22,20" fill="#654321"/>
  <polygon points="42,20 46,15 50,20" fill="#654321"/>
  <!-- Gothic spire on main tower -->
  <polygon points="30,3 32,0 34,3" fill="#2F4F4F"/>
  <!-- Cross on spire -->
  <line x1="32" y1="0" x2="32" y2="-2" stroke="#FFD700" stroke-width="1"/>
  <line x1="31" y1="-1" x2="33" y2="-1" stroke="#FFD700" stroke-width="1"/>
  <!-- Large Gothic windows -->
  <path d="M22,30 Q24,27 26,30 L26,40 L22,40 Z" fill="#4169E1"/>
  <path d="M28,30 Q30,27 32,30 L32,40 L28,40 Z" fill="#4169E1"/>
  <path d="M34,30 Q36,27 38,30 L38,40 L34,40 Z" fill="#4169E1"/>
  <path d="M40,30 Q42,27 44,30 L40,40 L40,40 Z" fill="#4169E1"/>
  <!-- Rose window -->
  <circle cx="32" cy="18" r="3" fill="#8A2BE2"/>
  <circle cx="32" cy="18" r="2.5" fill="#4169E1"/>
  <circle cx="32" cy="18" r="2" fill="#FFB6C1"/>
  <circle cx="32" cy="18" r="1.5" fill="#FFD700"/>
  <!-- Tower windows -->
  <rect x="29" y="15" width="2" height="3" fill="#4169E1"/>
  <rect x="33" y="15" width="2" height="3" fill="#4169E1"/>
  <rect x="17" y="25" width="2" height="3" fill="#4169E1"/>
  <rect x="45" y="25" width="2" height="3" fill="#4169E1"/>
  <!-- Main entrance -->
  <path d="M29,45 Q32,42 35,45 L35,55 L29,55 Z" fill="#2E2E2E"/>
  <!-- Entrance decoration -->
  <path d="M30,45 Q32,43 34,45" fill="none" stroke="#FFD700" stroke-width="1"/>
  <!-- Brick pattern -->
  <line x1="18" y1="30" x2="46" y2="30" stroke="#8B4513" stroke-width="0.3"/>
  <line x1="18" y1="35" x2="46" y2="35" stroke="#8B4513" stroke-width="0.3"/>
  <line x1="18" y1="40" x2="46" y2="40" stroke="#8B4513" stroke-width="0.3"/>
  <line x1="18" y1="45" x2="46" y2="45" stroke="#8B4513" stroke-width="0.3"/>
  <line x1="18" y1="50" x2="46" y2="50" stroke="#8B4513" stroke-width="0.3"/>
  <!-- Ground -->
  <rect x="0" y="55" width="64" height="9" fill="#D2B48C"/>
  <!-- Church yard -->
  <circle cx="10" cy="58" r="1" fill="#228B22"/>
  <circle cx="54" cy="58" r="1" fill="#228B22"/>
  <!-- Street -->
  <rect x="0" y="56" width="64" height="1" fill="#A9A9A9"/>
</svg>