<svg xmlns="http://www.w3.org/2000/svg" viewBox="0 0 64 64" width="64" height="64">
  <defs>
    <linearGradient id="houseGrad" x1="0%" y1="0%" x2="0%" y2="100%">
      <stop offset="0%" style="stop-color:#FF6B6B;stop-opacity:1" />
      <stop offset="100%" style="stop-color:#DC143C;stop-opacity:1" />
    </linearGradient>
    <linearGradient id="house2Grad" x1="0%" y1="0%" x2="0%" y2="100%">
      <stop offset="0%" style="stop-color:#FFD700;stop-opacity:1" />
      <stop offset="100%" style="stop-color:#DAA520;stop-opacity:1" />
    </linearGradient>
    <linearGradient id="house3Grad" x1="0%" y1="0%" x2="0%" y2="100%">
      <stop offset="0%" style="stop-color:#90EE90;stop-opacity:1" />
      <stop offset="100%" style="stop-color:#32CD32;stop-opacity:1" />
    </linearGradient>
  </defs>
  <!-- Sky -->
  <rect x="0" y="0" width="64" height="25" fill="#87CEEB"/>
  <!-- Długi Targ street ground -->
  <rect x="0" y="45" width="64" height="19" fill="#D2B48C"/>
  <!-- Colorful merchant houses -->
  <rect x="5" y="20" width="8" height="25" fill="url(#houseGrad)" stroke="#B22222" stroke-width="1"/>
  <rect x="15" y="18" width="10" height="27" fill="url(#house2Grad)" stroke="#B8860B" stroke-width="1"/>
  <rect x="27" y="22" width="9" height="23" fill="url(#house3Grad)" stroke="#228B22" stroke-width="1"/>
  <rect x="38" y="19" width="8" height="26" fill="#DDA0DD" stroke="#9370DB" stroke-width="1"/>
  <rect x="48" y="21" width="10" height="24" fill="#F0E68C" stroke="#BDB76B" stroke-width="1"/>
  <!-- Traditional stepped gables -->
  <polygon points="5,20 9,10 13,20" fill="#B22222"/>
  <polygon points="15,18 20,8 25,18" fill="#B8860B"/>
  <polygon points="27,22 31,12 36,22" fill="#228B22"/>
  <polygon points="38,19 42,9 46,19" fill="#9370DB"/>
  <polygon points="48,21 53,11 58,21" fill="#BDB76B"/>
  <!-- Windows with frames -->
  <rect x="7" y="25" width="2" height="3" fill="#4169E1" stroke="#8B4513" stroke-width="0.3"/>
  <rect x="10" y="25" width="2" height="3" fill="#4169E1" stroke="#8B4513" stroke-width="0.3"/>
  <rect x="17" y="23" width="2" height="3" fill="#4169E1" stroke="#8B4513" stroke-width="0.3"/>
  <rect x="20" y="23" width="2" height="3" fill="#4169E1" stroke="#8B4513" stroke-width="0.3"/>
  <rect x="23" y="23" width="2" height="3" fill="#4169E1" stroke="#8B4513" stroke-width="0.3"/>
  <rect x="29" y="27" width="2" height="3" fill="#4169E1" stroke="#8B4513" stroke-width="0.3"/>
  <rect x="32" y="27" width="2" height="3" fill="#4169E1" stroke="#8B4513" stroke-width="0.3"/>
  <rect x="40" y="24" width="2" height="3" fill="#4169E1" stroke="#8B4513" stroke-width="0.3"/>
  <rect x="43" y="24" width="2" height="3" fill="#4169E1" stroke="#8B4513" stroke-width="0.3"/>
  <rect x="50" y="26" width="2" height="3" fill="#4169E1" stroke="#8B4513" stroke-width="0.3"/>
  <rect x="53" y="26" width="2" height="3" fill="#4169E1" stroke="#8B4513" stroke-width="0.3"/>
  <rect x="56" y="26" width="2" height="3" fill="#4169E1" stroke="#8B4513" stroke-width="0.3"/>
  <!-- Shop doors -->
  <rect x="8" y="38" width="3" height="7" fill="#8B4513"/>
  <rect x="18" y="38" width="3" height="7" fill="#8B4513"/>
  <rect x="30" y="38" width="3" height="7" fill="#8B4513"/>
  <rect x="41" y="38" width="3" height="7" fill="#8B4513"/>
  <rect x="52" y="38" width="3" height="7" fill="#8B4513"/>
  <!-- Neptune's Fountain (central) -->
  <circle cx="32" cy="52" r="3" fill="#4682B4"/>
  <rect x="31.5" y="49" width="1" height="6" fill="#8B7355"/>
  <circle cx="32" cy="48" r="1" fill="#8B7355"/>
  <!-- Cobblestone pattern -->
  <circle cx="12" cy="50" r="0.5" fill="#A9A9A9"/>
  <circle cx="20" cy="52" r="0.5" fill="#A9A9A9"/>
  <circle cx="25" cy="50" r="0.5" fill="#A9A9A9"/>
  <circle cx="38" cy="52" r="0.5" fill="#A9A9A9"/>
  <circle cx="45" cy="50" r="0.5" fill="#A9A9A9"/>
  <circle cx="52" cy="52" r="0.5" fill="#A9A9A9"/>
  <!-- Market stalls -->
  <rect x="2" y="50" width="4" height="3" fill="#8B4513"/>
  <rect x="59" y="50" width="4" height="3" fill="#8B4513"/>
  <!-- Awnings -->
  <polygon points="2,50 6,48 6,50" fill="#DC143C"/>
  <polygon points="59,50 63,48 63,50" fill="#32CD32"/>
</svg>