<svg xmlns="http://www.w3.org/2000/svg" viewBox="0 0 64 64" width="64" height="64">
  <defs>
    <linearGradient id="skyGrad" x1="0%" y1="0%" x2="0%" y2="100%">
      <stop offset="0%" style="stop-color:#87CEEB;stop-opacity:1" />
      <stop offset="100%" style="stop-color:#B0E0E6;stop-opacity:1" />
    </linearGradient>
    <linearGradient id="mountainGrad" x1="0%" y1="0%" x2="0%" y2="100%">
      <stop offset="0%" style="stop-color:#8FBC8F;stop-opacity:1" />
      <stop offset="100%" style="stop-color:#556B2F;stop-opacity:1" />
    </linearGradient>
  </defs>
  <!-- Sky -->
  <rect x="0" y="0" width="64" height="35" fill="url(#skyGrad)"/>
  <!-- Gubalówka hill -->
  <ellipse cx="32" cy="45" rx="30" ry="25" fill="url(#mountainGrad)"/>
  <!-- Cable car line -->
  <line x1="5" y1="55" x2="59" y2="25" stroke="#696969" stroke-width="1"/>
  <!-- Cable car poles -->
  <rect x="15" y="35" width="1" height="15" fill="#696969"/>
  <rect x="30" y="30" width="1" height="20" fill="#696969"/>
  <rect x="45" y="25" width="1" height="25" fill="#696969"/>
  <!-- Cable car cabin -->
  <rect x="35" y="28" width="6" height="4" fill="#DC143C" stroke="#B22222" stroke-width="0.5"/>
  <rect x="36" y="29" width="4" height="2" fill="#4169E1"/>
  <line x1="38" y1="28" x2="38" y2="25" stroke="#696969" stroke-width="0.5"/>
  <!-- Trees on the hill -->
  <polygon points="20,40 21,35 22,40" fill="#228B22"/>
  <polygon points="25,42 26,37 27,42" fill="#228B22"/>
  <polygon points="38,38 39,33 40,38" fill="#228B22"/>
  <polygon points="42,40 43,35 44,40" fill="#228B22"/>
  <polygon points="48,42 49,37 50,42" fill="#228B22"/>
  <!-- Ski slopes -->
  <path d="M10,50 Q20,35 35,30" fill="none" stroke="#F0F8FF" stroke-width="2" opacity="0.7"/>
  <path d="M25,45 Q35,35 50,28" fill="none" stroke="#F0F8FF" stroke-width="2" opacity="0.7"/>
  <!-- Observatory tower on top -->
  <rect x="31" y="15" width="2" height="10" fill="#8B4513"/>
  <rect x="29" y="20" width="6" height="5" fill="#D2B48C" stroke="#8B7355" stroke-width="0.5"/>
  <polygon points="28,20 32,17 36,20" fill="#8B4513"/>
  <!-- Viewing platform -->
  <rect x="28" y="24" width="8" height="1" fill="#8B7355"/>
  <!-- Mountain panorama in background -->
  <polygon points="0,35 8,18 16,25 24,15 32,20 40,12 48,18 56,10 64,20 64,35" fill="#9370DB" opacity="0.6"/>
  <!-- Clouds -->
  <ellipse cx="15" cy="10" rx="4" ry="2" fill="#FFFFFF" opacity="0.8"/>
  <ellipse cx="50" cy="8" rx="5" ry="2.5" fill="#FFFFFF" opacity="0.8"/>
  <!-- Hiking trail -->
  <path d="M8,55 Q25,45 40,35 Q50,30 58,25" fill="none" stroke="#8B4513" stroke-width="1" stroke-dasharray="2,2"/>
</svg>