<svg xmlns="http://www.w3.org/2000/svg" viewBox="0 0 64 64" width="64" height="64">
  <defs>
    <linearGradient id="buildingGrad" x1="0%" y1="0%" x2="0%" y2="100%">
      <stop offset="0%" style="stop-color:#DEB887;stop-opacity:1" />
      <stop offset="100%" style="stop-color:#CD853F;stop-opacity:1" />
    </linearGradient>
  </defs>
  <!-- Street ground -->
  <rect x="0" y="50" width="64" height="14" fill="#8B8B8B"/>
  <!-- Historic buildings -->
  <rect x="5" y="25" width="12" height="25" fill="url(#buildingGrad)" stroke="#8B7355" stroke-width="1"/>
  <rect x="20" y="30" width="10" height="20" fill="#F0E68C" stroke="#DAA520" stroke-width="1"/>
  <rect x="33" y="28" width="14" height="22" fill="#FFB6C1" stroke="#CD5C5C" stroke-width="1"/>
  <rect x="50" y="32" width="10" height="18" fill="#98FB98" stroke="#228B22" stroke-width="1"/>
  <!-- Roofs -->
  <polygon points="3,25 11,15 19,25" fill="#8B4513"/>
  <polygon points="18,30 25,20 32,30" fill="#654321"/>
  <polygon points="31,28 40,18 49,28" fill="#8B4513"/>
  <polygon points="48,32 55,22 62,32" fill="#654321"/>
  <!-- Synagogue in center -->
  <rect x="26" y="35" width="12" height="15" fill="#F5DEB3" stroke="#DEB887" stroke-width="1"/>
  <polygon points="24,35 32,25 40,35" fill="#8B4513"/>
  <!-- Star of David -->
  <polygon points="32,40 30,37 34,37" fill="#4169E1"/>
  <polygon points="32,43 30,46 34,46" fill="#4169E1"/>
  <polygon points="29,41.5 35,41.5" fill="none" stroke="#4169E1" stroke-width="1"/>
  <!-- Windows -->
  <rect x="8" y="35" width="2" height="3" fill="#4169E1"/>
  <rect x="12" y="35" width="2" height="3" fill="#4169E1"/>
  <rect x="22" y="38" width="2" height="3" fill="#4169E1"/>
  <rect x="36" y="38" width="2" height="3" fill="#4169E1"/>
  <rect x="42" y="38" width="2" height="3" fill="#4169E1"/>
  <rect x="52" y="40" width="2" height="3" fill="#4169E1"/>
  <!-- Doors -->
  <rect x="10" y="42" width="3" height="8" fill="#8B4513"/>
  <rect x="23" y="42" width="3" height="8" fill="#8B4513"/>
  <rect x="29" y="42" width="3" height="8" fill="#654321"/>
  <rect x="38" y="42" width="3" height="8" fill="#8B4513"/>
  <rect x="53" y="42" width="3" height="8" fill="#8B4513"/>
  <!-- Street cafe tables -->
  <circle cx="15" cy="55" r="2" fill="#8B4513"/>
  <circle cx="45" cy="55" r="2" fill="#8B4513"/>
</svg>