<svg xmlns="http://www.w3.org/2000/svg" viewBox="0 0 64 64" width="64" height="64">
  <defs>
    <linearGradient id="buildingGrad" x1="0%" y1="0%" x2="0%" y2="100%">
      <stop offset="0%" style="stop-color:#DAA520;stop-opacity:1" />
      <stop offset="100%" style="stop-color:#B8860B;stop-opacity:1" />
    </linearGradient>
  </defs>
  <!-- Market square ground -->
  <rect x="0" y="45" width="64" height="19" fill="#D2B48C"/>
  <!-- Central Cloth Hall -->
  <rect x="20" y="25" width="24" height="20" fill="url(#buildingGrad)" stroke="#8B7355" stroke-width="1"/>
  <!-- Cloth Hall roof -->
  <polygon points="18,25 32,15 46,25" fill="#8B4513"/>
  <!-- Arches -->
  <path d="M22,35 Q24,32 26,35" fill="none" stroke="#654321" stroke-width="2"/>
  <path d="M28,35 Q30,32 32,35" fill="none" stroke="#654321" stroke-width="2"/>
  <path d="M34,35 Q36,32 38,35" fill="none" stroke="#654321" stroke-width="2"/>
  <path d="M40,35 Q42,32 44,35" fill="none" stroke="#654321" stroke-width="2"/>
  <!-- St. Mary's towers -->
  <rect x="6" y="10" width="8" height="35" fill="#CD853F" stroke="#8B7355" stroke-width="1"/>
  <rect x="50" y="15" width="6" height="30" fill="#CD853F" stroke="#8B7355" stroke-width="1"/>
  <!-- Tower tops -->
  <polygon points="6,10 10,2 14,10" fill="#8B4513"/>
  <polygon points="50,15 53,8 56,15" fill="#8B4513"/>
  <!-- Windows -->
  <rect x="8" y="15" width="2" height="3" fill="#2E2E2E"/>
  <rect x="11" y="15" width="2" height="3" fill="#2E2E2E"/>
  <rect x="52" y="20" width="2" height="3" fill="#2E2E2E"/>
  <!-- Market stalls -->
  <rect x="2" y="40" width="6" height="5" fill="#8B4513"/>
  <rect x="56" y="40" width="6" height="5" fill="#8B4513"/>
  <!-- Cobblestones pattern -->
  <circle cx="15" cy="52" r="1" fill="#A0A0A0"/>
  <circle cx="25" cy="50" r="1" fill="#A0A0A0"/>
  <circle cx="35" cy="52" r="1" fill="#A0A0A0"/>
  <circle cx="45" cy="50" r="1" fill="#A0A0A0"/>
</svg>