<svg xmlns="http://www.w3.org/2000/svg" viewBox="0 0 64 64" width="64" height="64">
  <defs>
    <linearGradient id="palaceGrad" x1="0%" y1="0%" x2="0%" y2="100%">
      <stop offset="0%" style="stop-color:#F5DEB3;stop-opacity:1" />
      <stop offset="100%" style="stop-color:#DEB887;stop-opacity:1" />
    </linearGradient>
    <linearGradient id="waterGrad" x1="0%" y1="0%" x2="0%" y2="100%">
      <stop offset="0%" style="stop-color:#4682B4;stop-opacity:1" />
      <stop offset="100%" style="stop-color:#1E90FF;stop-opacity:1" />
    </linearGradient>
  </defs>
  <!-- Sky -->
  <rect x="0" y="0" width="64" height="30" fill="#87CEEB"/>
  <!-- Palace on the Water (Åazienki Palace) -->
  <rect x="20" y="20" width="24" height="15" fill="url(#palaceGrad)" stroke="#CD853F" stroke-width="1"/>
  <!-- Palace roof -->
  <polygon points="18,20 32,12 46,20" fill="#654321"/>
  <!-- Central dome -->
  <ellipse cx="32" cy="18" rx="3" ry="5" fill="url(#palaceGrad)" stroke="#CD853F" stroke-width="1"/>
  <ellipse cx="32" cy="14" rx="2" ry="3" fill="#8B4513"/>
  <!-- Palace windows -->
  <rect x="23" y="25" width="2" height="3" fill="#4169E1" stroke="#8B4513" stroke-width="0.3"/>
  <rect x="26" y="25" width="2" height="3" fill="#4169E1" stroke="#8B4513" stroke-width="0.3"/>
  <rect x="29" y="25" width="2" height="3" fill="#4169E1" stroke="#8B4513" stroke-width="0.3"/>
  <rect x="33" y="25" width="2" height="3" fill="#4169E1" stroke="#8B4513" stroke-width="0.3"/>
  <rect x="36" y="25" width="2" height="3" fill="#4169E1" stroke="#8B4513" stroke-width="0.3"/>
  <rect x="39" y="25" width="2" height="3" fill="#4169E1" stroke="#8B4513" stroke-width="0.3"/>
  <!-- Palace entrance -->
  <rect x="30" y="30" width="4" height="5" fill="#8B4513"/>
  <!-- Water around palace -->
  <ellipse cx="32" cy="45" rx="28" ry="8" fill="url(#waterGrad)"/>
  <!-- Bridge to palace -->
  <rect x="28" y="35" width="8" height="2" fill="#D2B48C"/>
  <rect x="27" y="36" width="10" height="0.5" fill="#A9A9A9"/>
  <!-- Park trees -->
  <rect x="8" y="35" width="2" height="10" fill="#8B4513"/>
  <circle cx="9" cy="35" r="4" fill="#228B22"/>
  <rect x="50" y="38" width="2" height="7" fill="#8B4513"/>
  <circle cx="51" cy="38" r="3" fill="#32CD32"/>
  <rect x="4" y="40" width="1.5" height="8" fill="#8B4513"/>
  <circle cx="4.75" cy="40" r="3" fill="#228B22"/>
  <rect x="58" y="42" width="1.5" height="6" fill="#8B4513"/>
  <circle cx="58.75" cy="42" r="2.5" fill="#32CD32"/>
  <!-- Park paths -->
  <path d="M2,50 Q15,45 28,50" fill="none" stroke="#D2B48C" stroke-width="2"/>
  <path d="M36,50 Q48,45 60,50" fill="none" stroke="#D2B48C" stroke-width="2"/>
  <!-- Peacocks in park -->
  <ellipse cx="12" cy="48" rx="1.2" ry="0.8" fill="#4169E1"/>
  <circle cx="11.5" cy="47.5" r="0.3" fill="#2F4F4F"/>
  <polygon points="12.8,48 13.3,47.5 13.1,48.5" fill="#FFD700"/>
  <path d="M13,47 Q15,45 14,49" fill="none" stroke="#32CD32" stroke-width="0.5"/>
  <!-- Water reflections -->
  <ellipse cx="30" cy="44" rx="3" ry="0.5" fill="#87CEEB" opacity="0.7"/>
  <ellipse cx="35" cy="46" rx="4" ry="0.8" fill="#87CEEB" opacity="0.7"/>
  <!-- Ground -->
  <rect x="0" y="53" width="64" height="11" fill="#8FBC8F"/>
  <!-- Garden beds -->
  <ellipse cx="16" cy="56" rx="4" ry="2" fill="#228B22"/>
  <ellipse cx="48" cy="57" rx="5" ry="2.5" fill="#32CD32"/>
  <!-- Flowers in garden -->
  <circle cx="14" cy="55" r="0.3" fill="#FF69B4"/>
  <circle cx="16" cy="57" r="0.3" fill="#FFB6C1"/>
  <circle cx="18" cy="56" r="0.3" fill="#DDA0DD"/>
  <circle cx="46" cy="56" r="0.3" fill="#FF69B4"/>
  <circle cx="48" cy="58" r="0.3" fill="#FFB6C1"/>
  <circle cx="50" cy="57" r="0.3" fill="#DDA0DD"/>
  <!-- Monument (Chopin monument) -->
  <rect x="22" y="54" width="1" height="4" fill="#696969"/>
  <ellipse cx="22.5" cy="53" rx="1" ry="1.5" fill="#696969"/>
  <!-- Park benches -->
  <rect x="38" y="54" width="4" height="0.8" fill="#8B4513"/>
  <rect x="38.5" y="53.5" width="0.3" height="1.5" fill="#8B4513"/>
  <rect x="41.2" y="53.5" width="0.3" height="1.5" fill="#8B4513"/>
  <!-- Swans in water -->
  <ellipse cx="25" cy="45" rx="1" ry="0.6" fill="#FFFFFF"/>
  <ellipse cx="24.2" cy="44.5" rx="0.3" ry="0.4" fill="#FFFFFF"/>
  <circle cx="24" cy="44.3" r="0.1" fill="#2F4F4F"/>
  <polygon points="24.8,45 25.2,44.8 25.1,45.2" fill="#FFA500"/>
</svg>