<svg xmlns="http://www.w3.org/2000/svg" viewBox="0 0 64 64" width="64" height="64">
  <defs>
    <linearGradient id="castleGrad" x1="0%" y1="0%" x2="0%" y2="100%">
      <stop offset="0%" style="stop-color:#DC143C;stop-opacity:1" />
      <stop offset="100%" style="stop-color:#8B0000;stop-opacity:1" />
    </linearGradient>
  </defs>
  <!-- Sky -->
  <rect x="0" y="0" width="64" height="25" fill="#87CEEB"/>
  <!-- Royal Castle main building -->
  <rect x="12" y="25" width="40" height="25" fill="url(#castleGrad)" stroke="#654321" stroke-width="1"/>
  <!-- Castle roof -->
  <polygon points="10,25 32,15 54,25" fill="#654321"/>
  <!-- Central tower -->
  <rect x="28" y="18" width="8" height="17" fill="url(#castleGrad)" stroke="#654321" stroke-width="1"/>
  <polygon points="26,18 32,10 38,18" fill="#654321"/>
  <!-- Side towers -->
  <rect x="8" y="22" width="6" height="18" fill="url(#castleGrad)" stroke="#654321" stroke-width="1"/>
  <rect x="50" y="22" width="6" height="18" fill="url(#castleGrad)" stroke="#654321" stroke-width="1"/>
  <polygon points="7,22 11,16 15,22" fill="#654321"/>
  <polygon points="49,22 53,16 57,22" fill="#654321"/>
  <!-- Clock tower -->
  <rect x="30" y="12" width="4" height="8" fill="url(#castleGrad)" stroke="#654321" stroke-width="1"/>
  <circle cx="32" cy="15" r="1.5" fill="#FFD700"/>
  <line x1="32" y1="15" x2="32" y2="13.5" stroke="#2F4F4F" stroke-width="0.5"/>
  <line x1="32" y1="15" x2="33.2" y2="15.8" stroke="#2F4F4F" stroke-width="0.5"/>
  <!-- Polish eagle on central tower -->
  <polygon points="32,8 30,10 32,12 34,10" fill="#FFD700"/>
  <circle cx="32" cy="9" r="0.3" fill="#2F4F4F"/>
  <!-- Royal windows -->
  <rect x="16" y="30" width="3" height="4" fill="#4169E1" stroke="#8B4513" stroke-width="0.3"/>
  <rect x="21" y="30" width="3" height="4" fill="#4169E1" stroke="#8B4513" stroke-width="0.3"/>
  <rect x="26" y="30" width="3" height="4" fill="#4169E1" stroke="#8B4513" stroke-width="0.3"/>
  <rect x="35" y="30" width="3" height="4" fill="#4169E1" stroke="#8B4513" stroke-width="0.3"/>
  <rect x="40" y="30" width="3" height="4" fill="#4169E1" stroke="#8B4513" stroke-width="0.3"/>
  <rect x="45" y="30" width="3" height="4" fill="#4169E1" stroke="#8B4513" stroke-width="0.3"/>
  <!-- Tower windows -->
  <rect x="9.5" y="26" width="1.5" height="2" fill="#4169E1"/>
  <rect x="11.5" y="26" width="1.5" height="2" fill="#4169E1"/>
  <rect x="51" y="26" width="1.5" height="2" fill="#4169E1"/>
  <rect x="53" y="26" width="1.5" height="2" fill="#4169E1"/>
  <rect x="30.5" y="15" width="1" height="2" fill="#4169E1"/>
  <rect x="32.5" y="15" width="1" height="2" fill="#4169E1"/>
  <!-- Main entrance -->
  <path d="M28,40 Q32,37 36,40 L36,50 L28,50 Z" fill="#2E2E2E"/>
  <rect x="30" y="41" width="4" height="2" fill="#8B4513"/>
  <!-- Royal decorations -->
  <rect x="14" y="28" width="6" height="1" fill="#FFD700"/>
  <rect x="44" y="28" width="6" height="1" fill="#FFD700"/>
  <circle cx="32" cy="27" r="1" fill="#FFD700"/>
  <!-- Ground -->
  <rect x="0" y="50" width="64" height="14" fill="#D2B48C"/>
  <!-- Castle courtyard -->
  <rect x="6" y="52" width="52" height="2" fill="#A9A9A9"/>
  <!-- Guard posts -->
  <rect x="4" y="48" width="2" height="6" fill="#8B4513"/>
  <rect x="58" y="48" width="2" height="6" fill="#8B4513"/>
  <polygon points="3,48 5,45 7,48" fill="#654321"/>
  <polygon points="57,48 59,45 61,48" fill="#654321"/>
  <!-- Flags -->
  <line x1="32" y1="10" x2="32" y2="5" stroke="#8B4513" stroke-width="0.5"/>
  <polygon points="32,5 37,7 32,9" fill="#DC143C"/>
  <line x1="11" y1="16" x2="11" y2="12" stroke="#8B4513" stroke-width="0.3"/>
  <polygon points="11,12 14,13 11,14" fill="#FFD700"/>
  <line x1="53" y1="16" x2="53" y2="12" stroke="#8B4513" stroke-width="0.3"/>
  <polygon points="53,12 56,13 53,14" fill="#FFD700"/>
  <!-- Castle walls -->
  <rect x="2" y="40" width="60" height="2" fill="#8B7355"/>
  <!-- Entrance bridge -->
  <rect x="26" y="48" width="12" height="2" fill="#8B7355"/>
</svg>