<svg xmlns="http://www.w3.org/2000/svg" viewBox="0 0 64 64" width="64" height="64">
  <defs>
    <linearGradient id="castleGrad" x1="0%" y1="0%" x2="0%" y2="100%">
      <stop offset="0%" style="stop-color:#8B4513;stop-opacity:1" />
      <stop offset="100%" style="stop-color:#654321;stop-opacity:1" />
    </linearGradient>
  </defs>
  <!-- Castle base -->
  <rect x="8" y="35" width="48" height="20" fill="url(#castleGrad)" stroke="#5D4037" stroke-width="1"/>
  <!-- Castle towers -->
  <rect x="6" y="20" width="10" height="25" fill="url(#castleGrad)" stroke="#5D4037" stroke-width="1"/>
  <rect x="48" y="20" width="10" height="25" fill="url(#castleGrad)" stroke="#5D4037" stroke-width="1"/>
  <rect x="26" y="15" width="12" height="30" fill="url(#castleGrad)" stroke="#5D4037" stroke-width="1"/>
  <!-- Tower tops -->
  <polygon points="6,20 11,10 16,20" fill="#8B4513"/>
  <polygon points="48,20 53,10 58,20" fill="#8B4513"/>
  <polygon points="26,15 32,5 38,15" fill="#8B4513"/>
  <!-- Windows -->
  <rect x="10" y="25" width="2" height="4" fill="#2E2E2E"/>
  <rect x="51" y="25" width="2" height="4" fill="#2E2E2E"/>
  <rect x="30" y="20" width="2" height="4" fill="#2E2E2E"/>
  <rect x="34" y="20" width="2" height="4" fill="#2E2E2E"/>
  <!-- Gate -->
  <rect x="28" y="40" width="8" height="15" fill="#2E2E2E" rx="4"/>
  <!-- Flag -->
  <line x1="32" y1="5" x2="32" y2="0" stroke="#8B4513" stroke-width="1"/>
  <polygon points="32,0 37,2 32,4" fill="#DC143C"/>
</svg>