<svg xmlns="http://www.w3.org/2000/svg" viewBox="0 0 64 64" width="64" height="64">
  <defs>
    <linearGradient id="palaceGrad" x1="0%" y1="0%" x2="0%" y2="100%">
      <stop offset="0%" style="stop-color:#FFE4B5;stop-opacity:1" />
      <stop offset="100%" style="stop-color:#DEB887;stop-opacity:1" />
    </linearGradient>
  </defs>
  <!-- Sky -->
  <rect x="0" y="0" width="64" height="25" fill="#87CEEB"/>
  <!-- Wilanów Palace main building -->
  <rect x="16" y="25" width="32" height="20" fill="url(#palaceGrad)" stroke="#CD853F" stroke-width="1"/>
  <!-- Palace roof -->
  <polygon points="14,25 32,15 50,25" fill="#8B4513"/>
  <!-- Central section with decorative elements -->
  <rect x="26" y="20" width="12" height="25" fill="url(#palaceGrad)" stroke="#CD853F" stroke-width="1"/>
  <polygon points="24,20 32,12 40,20" fill="#654321"/>
  <!-- Side wings -->
  <rect x="10" y="30" width="8" height="15" fill="url(#palaceGrad)" stroke="#CD853F" stroke-width="1"/>
  <rect x="46" y="30" width="8" height="15" fill="url(#palaceGrad)" stroke="#CD853F" stroke-width="1"/>
  <polygon points="8,30 14,25 20,30" fill="#8B4513"/>
  <polygon points="44,30 50,25 56,30" fill="#8B4513"/>
  <!-- Baroque decorative elements -->
  <circle cx="32" cy="27" r="2" fill="#FFD700"/>
  <circle cx="32" cy="27" r="1.5" fill="#FFA500"/>
  <rect x="30" y="24" width="4" height="1" fill="#FFD700"/>
  <!-- Palace windows (baroque style) -->
  <rect x="18" y="30" width="2.5" height="4" fill="#4169E1" stroke="#8B4513" stroke-width="0.3"/>
  <rect x="22" y="30" width="2.5" height="4" fill="#4169E1" stroke="#8B4513" stroke-width="0.3"/>
  <rect x="28" y="30" width="2.5" height="4" fill="#4169E1" stroke="#8B4513" stroke-width="0.3"/>
  <rect x="33.5" y="30" width="2.5" height="4" fill="#4169E1" stroke="#8B4513" stroke-width="0.3"/>
  <rect x="39" y="30" width="2.5" height="4" fill="#4169E1" stroke="#8B4513" stroke-width="0.3"/>
  <rect x="43.5" y="30" width="2.5" height="4" fill="#4169E1" stroke="#8B4513" stroke-width="0.3"/>
  <!-- Central window (larger) -->
  <rect x="30" y="35" width="4" height="5" fill="#4169E1" stroke="#8B4513" stroke-width="0.3"/>
  <!-- Side wing windows -->
  <rect x="12" y="33" width="2" height="3" fill="#4169E1" stroke="#8B4513" stroke-width="0.3"/>
  <rect x="15" y="33" width="2" height="3" fill="#4169E1" stroke="#8B4513" stroke-width="0.3"/>
  <rect x="47" y="33" width="2" height="3" fill="#4169E1" stroke="#8B4513" stroke-width="0.3"/>
  <rect x="50" y="33" width="2" height="3" fill="#4169E1" stroke="#8B4513" stroke-width="0.3"/>
  <!-- Main entrance with steps -->
  <rect x="29" y="40" width="6" height="5" fill="#8B4513"/>
  <rect x="28" y="44" width="8" height="1" fill="#D2B48C"/>
  <rect x="27" y="45" width="10" height="0.5" fill="#A9A9A9"/>
  <!-- Baroque garden -->
  <rect x="0" y="45" width="64" height="19" fill="#8FBC8F"/>
  <!-- Formal garden paths -->
  <rect x="8" y="50" width="48" height="2" fill="#D2B48C"/>
  <rect x="30" y="47" width="4" height="10" fill="#D2B48C"/>
  <!-- Garden parterres -->
  <ellipse cx="20" cy="55" rx="6" ry="3" fill="#228B22"/>
  <ellipse cx="44" cy="55" rx="6" ry="3" fill="#32CD32"/>
  <!-- Geometric flower beds -->
  <polygon points="18,53 22,53 20,56" fill="#FF69B4"/>
  <polygon points="42,53 46,53 44,56" fill="#FFB6C1"/>
  <circle cx="20" cy="58" r="1" fill="#DDA0DD"/>
  <circle cx="44" cy="58" r="1" fill="#FF1493"/>
  <!-- Fountain in garden -->
  <circle cx="32" cy="55" r="2" fill="#4682B4"/>
  <circle cx="32" cy="55" r="1" fill="#87CEEB"/>
  <rect x="31.5" y="53" width="1" height="4" fill="#696969"/>
  <!-- Topiary trees -->
  <rect x="24" y="52" width="1" height="4" fill="#8B4513"/>
  <circle cx="24.5" cy="52" r="2" fill="#228B22"/>
  <rect x="39" y="52" width="1" height="4" fill="#8B4513"/>
  <circle cx="39.5" cy="52" r="2" fill="#32CD32"/>
  <!-- Palace gardens trees -->
  <rect x="5" y="50" width="1.5" height="8" fill="#8B4513"/>
  <circle cx="5.75" cy="50" r="3" fill="#228B22"/>
  <rect x="58" y="52" width="1.5" height="6" fill="#8B4513"/>
  <circle cx="58.75" cy="52" r="2.5" fill="#32CD32"/>
  <!-- Garden statues -->
  <rect x="15" y="57" width="0.8" height="3" fill="#F5F5DC"/>
  <circle cx="15.4" cy="56.5" r="0.5" fill="#F5F5DC"/>
  <rect x="49" y="57" width="0.8" height="3" fill="#F5F5DC"/>
  <circle cx="49.4" cy="56.5" r="0.5" fill="#F5F5DC"/>
  <!-- Garden walls -->
  <rect x="2" y="48" width="60" height="1" fill="#D2B48C"/>
  <!-- Decorative gate posts -->
  <rect x="30" y="46" width="1" height="4" fill="#8B7355"/>
  <rect x="33" y="46" width="1" height="4" fill="#8B7355"/>
  <circle cx="30.5" cy="45.5" r="0.5" fill="#FFD700"/>
  <circle cx="33.5" cy="45.5" r="0.5" fill="#FFD700"/>
</svg>