<svg xmlns="http://www.w3.org/2000/svg" viewBox="0 0 64 64" width="64" height="64">
  <defs>
    <linearGradient id="houseGrad" x1="0%" y1="0%" x2="0%" y2="100%">
      <stop offset="0%" style="stop-color:#DEB887;stop-opacity:1" />
      <stop offset="100%" style="stop-color:#D2B48C;stop-opacity:1" />
    </linearGradient>
    <linearGradient id="mountainGrad" x1="0%" y1="0%" x2="0%" y2="100%">
      <stop offset="0%" style="stop-color:#E6E6FA;stop-opacity:1" />
      <stop offset="100%" style="stop-color:#9370DB;stop-opacity:1" />
    </linearGradient>
  </defs>
  <!-- Sky -->
  <rect x="0" y="0" width="64" height="25" fill="#87CEEB"/>
  <!-- Tatra mountains background -->
  <polygon points="0,25 12,8 22,15 32,5 42,12 52,6 64,15 64,25" fill="url(#mountainGrad)"/>
  <!-- Snow caps -->
  <polygon points="10,15 15,8 20,15" fill="#F0F8FF"/>
  <polygon points="28,12 32,5 36,12" fill="#F0F8FF"/>
  <polygon points="48,12 52,6 56,12" fill="#F0F8FF"/>
  <!-- Ground -->
  <rect x="0" y="50" width="64" height="14" fill="#8FBC8F"/>
  <!-- Traditional Zakopane wooden houses -->
  <rect x="8" y="35" width="12" height="15" fill="url(#houseGrad)" stroke="#8B7355" stroke-width="1"/>
  <rect x="25" y="38" width="14" height="12" fill="url(#houseGrad)" stroke="#8B7355" stroke-width="1"/>
  <rect x="44" y="36" width="10" height="14" fill="url(#houseGrad)" stroke="#8B7355" stroke-width="1"/>
  <!-- Traditional steep roofs -->
  <polygon points="6,35 14,25 22,35" fill="#8B4513"/>
  <polygon points="23,38 32,28 41,38" fill="#654321"/>
  <polygon points="42,36 49,26 56,36" fill="#8B4513"/>
  <!-- Characteristic Zakopane wooden decorations -->
  <rect x="12" y="32" width="4" height="1" fill="#654321"/>
  <rect x="29" y="35" width="6" height="1" fill="#654321"/>
  <rect x="47" y="33" width="3" height="1" fill="#654321"/>
  <!-- Windows with traditional frames -->
  <rect x="10" y="40" width="3" height="3" fill="#4169E1" stroke="#654321" stroke-width="0.5"/>
  <rect x="15" y="40" width="3" height="3" fill="#4169E1" stroke="#654321" stroke-width="0.5"/>
  <rect x="27" y="42" width="3" height="3" fill="#4169E1" stroke="#654321" stroke-width="0.5"/>
  <rect x="34" y="42" width="3" height="3" fill="#4169E1" stroke="#654321" stroke-width="0.5"/>
  <rect x="46" y="40" width="2" height="3" fill="#4169E1" stroke="#654321" stroke-width="0.5"/>
  <rect x="50" y="40" width="2" height="3" fill="#4169E1" stroke="#654321" stroke-width="0.5"/>
  <!-- Doors -->
  <rect x="13" y="45" width="3" height="5" fill="#8B4513"/>
  <rect x="30" y="45" width="3" height="5" fill="#8B4513"/>
  <rect x="48" y="45" width="2" height="5" fill="#8B4513"/>
  <!-- Pine trees -->
  <rect x="3" y="40" width="1" height="10" fill="#8B4513"/>
  <polygon points="2,40 3.5,30 5,40" fill="#228B22"/>
  <rect x="40" y="42" width="1" height="8" fill="#8B4513"/>
  <polygon points="39,42 40.5,34 42,42" fill="#228B22"/>
  <rect x="58" y="38" width="1" height="12" fill="#8B4513"/>
  <polygon points="57,38 58.5,28 60,38" fill="#228B22"/>
  <!-- Snow on ground -->
  <ellipse cx="20" cy="52" rx="8" ry="1" fill="#F0F8FF" opacity="0.8"/>
  <ellipse cx="45" cy="53" rx="6" ry="1" fill="#F0F8FF" opacity="0.8"/>
</svg>